<?xml version="1.0" encoding="utf-8"?>
<!-- Generator: Adobe Illustrator 19.0.0, SVG Export Plug-In . SVG Version: 6.00 Build 0)  -->
<svg version="1.1" id="Layer_1" xmlns="http://www.w3.org/2000/svg" xmlns:xlink="http://www.w3.org/1999/xlink" x="0px" y="0px"
	 viewBox="0 0 210 460" style="enable-background:new 0 0 210 460;" xml:space="preserve">
<g id="XMLID_17_">
	<g id="XMLID_4_">
		<path id="XMLID_21_" d="M105,360c-28.7,0-55.4-21.8-75.2-61.3C10.6,260.2,0,209.2,0,155C0,96.8,12.6,41.2,34.5,2.5L36,0H174
			l1.4,2.5C197.4,41.2,210,96.8,210,155c0,54.2-10.6,105.2-29.8,143.7C160.4,338.2,133.7,360,105,360z M41.8,10
			C21.6,47.1,10,99.8,10,155c0,52.7,10.2,102.1,28.8,139.2c18,36,41.5,55.8,66.2,55.8c24.7,0,48.2-19.8,66.2-55.8
			C189.8,257.1,200,207.7,200,155c0-55.2-11.6-107.9-31.8-145H41.8z"/>
	</g>
	<g id="XMLID_6_">
		<path d="M21.5,85c-4.2,22.1-6.5,45.8-6.5,70c0,51.9,10,100.5,28.2,136.9c17.1,34.2,39,53.1,61.8,53.1s44.7-18.8,61.8-53.1
			C185,255.5,195,206.9,195,155c0-24.2-2.3-47.9-6.5-70H21.5z"/>
	</g>
	<g id="XMLID_2_">
		<path id="XMLID_18_" d="M165,460H45c-2.8,0-5-2.2-5-5s2.2-5,5-5c11.4,0,20.4-3.8,27.5-11.8c22.9-25.3,17.5-82.2,17.5-82.7
			c-0.1-1.4,0.3-2.8,1.3-3.9s2.3-1.6,3.7-1.6h20c1.4,0,2.8,0.6,3.7,1.6c0.9,1,1.4,2.4,1.3,3.9c-0.1,0.6-5.4,57.5,17.5,82.7
			c7.2,7.9,16.2,11.8,27.5,11.8c2.8,0,5,2.2,5,5S167.8,460,165,460z M74.6,450h60.7c-1.9-1.5-3.6-3.2-5.3-5.1
			c-21.6-23.9-21.3-69.2-20.4-84.9h-9.3c0.8,15.8,1.2,61.1-20.4,84.9C78.3,446.8,76.5,448.5,74.6,450z"/>
	</g>
</g>
</svg>
