<?xml version="1.0" encoding="utf-8"?>
<!-- Generator: Adobe Illustrator 19.0.0, SVG Export Plug-In . SVG Version: 6.00 Build 0)  -->
<svg version="1.1" id="Layer_1" xmlns="http://www.w3.org/2000/svg" xmlns:xlink="http://www.w3.org/1999/xlink" x="0px" y="0px"
	 viewBox="-359 316 240 330" style="enable-background:new -359 316 240 330;" xml:space="preserve">
<g>
	<g id="XMLID_1_">
		<path d="M-239,476c-1.5,0-3.1-0.7-4-1.9l-115-150c-1.2-1.5-1.4-3.5-0.5-5.3s2.6-2.8,4.5-2.8h230c1.9,0,3.6,1.1,4.5,2.8
			c0.8,1.7,0.6,3.7-0.5,5.3l-115,150C-235.9,475.3-237.5,476-239,476z M-343.9,326L-239,462.8L-134.1,326H-343.9z"/>
	</g>
	<g id="XMLID_3_">
		<path d="M-184,646H-294c-2.4,0-4.5-1.7-4.9-4.1s0.9-4.7,3.2-5.6l55.1-20c1.1-0.4,2.3-0.4,3.4,0l55,20c2.3,0.8,3.6,3.2,3.2,5.6
			C-179.5,644.3-181.6,646-184,646z M-265.6,636h53.3l-26.6-9.7L-265.6,636z"/>
	</g>
	<g id="XMLID_2_">
		<rect x="-245" y="471" width="12" height="150"/>
	</g>
</g>
<polygon points="-322.3,346 -239,454.6 -155.7,346 "/>
</svg>
