<?xml version="1.0" encoding="utf-8"?>
<!-- Generator: Adobe Illustrator 19.0.0, SVG Export Plug-In . SVG Version: 6.00 Build 0)  -->
<svg version="1.1" id="Layer_1" xmlns="http://www.w3.org/2000/svg" xmlns:xlink="http://www.w3.org/1999/xlink" x="0px" y="0px"
	 viewBox="-96.1 144 762.4 278" style="enable-background:new -96.1 144 762.4 278;" xml:space="preserve">
<style type="text/css">
	.st0{fill:#CF0E0F;}
</style>
<g id="XMLID_1_">
	<g id="XMLID_6_">
		<path id="XMLID_15_" class="st0" d="M-45.5,367c-3.6,0.6-4.9-0.8-4-4.5c0.8-2.9,1.2-5.2,1.1-6.9c-0.1-2.9,0.2-5.1,0.8-6.5
			c1.8-4.3,6.1-6,13-5.1c1.2,0.2,2.2,0.2,3,0.1c0.8-0.1,1.6-0.3,2.3-0.6c2.4-0.8,4.5-1.2,6.3-1.2s3.4-0.2,4.8-0.6
			c1.4-0.4,2.8-0.8,4.1-1.3c1.3-0.5,2.4-1,3.5-1.4c1.1-0.5,2.1-0.8,3-0.9c1.3-0.2,2,0.7,2.2,2.9c0.2,2.2-0.1,4.6-0.7,7.4
			c-1.7,7-4,11.3-6.9,12.9c-2.1,1.2-4.2,2.8-6.2,4.9c-2.1,2.1-3.2,4.8-3.4,8.2c-0.2,3.4-0.5,6.1-0.8,8.1s-0.6,3.7-1,5.1
			c-0.3,1.4-0.6,2.7-0.9,3.7s-0.4,2.3-0.5,3.9c-0.1,1.5-0.6,3.6-1.4,6.3c-0.8,2.7-1.9,5.1-3.1,7.3c-3.1,5.3-6.2,7.6-9.3,7
			c-2.3-0.4-4.2-2.2-5.9-5.3c-0.5-1.1-1.1-2-1.6-2.8s-1.4-0.9-2.6-0.3c-1.2,0.5-2.3,1.4-3.4,2.6c-1,1.2-2.1,2.4-3.2,3.6
			c-6.7,8.1-13.8,10.3-21.2,6.7c-3.8-1.7-6.1-4.3-7.1-7.7c-0.3-1.5-0.7-3.3-1-5.2c-0.3-1.9-0.8-3.8-1.3-5.5c-1.2-4.2-2.6-6.8-4.3-8
			c-1.5-1.2-1.2-8.4,1.1-21.6c0.4-2.8,0.9-5.4,1.6-7.5c0.7-2.2,1.3-4.9,1.9-8.2l1.8-9.4c0.6-3,1-5.9,1.4-8.6
			c0.8-4.4,1.9-8.3,3.1-11.7c-3.6-2.1-4.1-7.4-1.7-15.8c1.6-5.3,3.3-9.3,4.9-11.9c1.7-2.6,3.1-5.2,4.2-7.7c1.2-2.5,2.4-5.2,3.6-8
			c1.3-2.8,2.7-4.7,4.3-5.8c1.6-1.1,2.6-1.9,3.1-2.5s1-1.2,1.5-1.8c3.2-4.3,8.9-7.8,17.2-10.6c3.7-1.3,7.2-1.6,10.4-0.8
			c3.2,0.8,5.9,1.1,8.2,0.9c2.3-0.1,4.4-0.3,6.4-0.5c8.7-1,14.1,0,16.2,2.9c1.5,2,2.3,4.1,2.3,6.4c0.1,2.3,0.4,4.1,0.9,5.4
			c0.6,1.3,0.6,2.7,0,4.4c-0.6,1.6-0.8,2.9-0.8,3.9s-0.3,2.1-0.9,3.2c-0.6,1.2-1.2,2.3-1.8,3.5c-1.3,3-1.6,5-0.9,6.1s1.4,2,2,2.9
			s1,1.8,1.1,2.9c0.6,2.5,0.3,4.8-0.9,6.9c-1.3,2.1-2.6,4.1-4,6.1s-3,3.2-4.7,3.6c-4.6,1.2-7.7,2.5-9.5,4c-1.8,1.4-3.2,2.4-4.3,3
			c-2.8,1.7-5.1,2-7,0.8c-3.3-1.1-4.2-4.2-2.8-9c1.3-5.8-0.1-8.6-4.2-8.4c-1.9,0.1-4,1-6.3,2.9s-4.3,4.1-5.9,6.8
			c-3.9,6.9-5.3,12.9-4.3,18c0.3,1.3,0.2,2.9-0.2,5l-1,5.3c-0.6,3.1-1.4,5.5-2.4,7.2c-1,1.6-1.7,3.4-2.2,5.5c-0.5,2-1,4.3-1.4,6.9
			c-0.4,2.6-0.8,5.3-1,8.2s-0.3,5.5-0.3,7.9c0.3,5.5,1.8,7.9,4.4,7.2c2-0.4,3.8-1.7,5.4-3.9c0.5-0.9,1.1-1.8,1.8-2.7
			s1.6-1.7,2.7-2.4c1.1-0.7,2-1.6,2.7-2.8c0.7-1.2,1.1-2.5,1.4-4c0.4-1.7,0.9-5,1.5-10C-43.4,366.5-44.5,366.8-45.5,367z"/>
		<path id="XMLID_14_" class="st0" d="M25,366.7l-1.3,9.7c-0.7,5.3-2.7,9-5.8,11.1c-1.8,5.6-3.1,10.5-3.9,14.8
			c-1.3,2.1-3,3.5-5.1,4.3c-3.9,1.2-6.2,0.6-6.9-2c-1-3.1-2-4.7-3-4.8c-0.2-0.1-0.6-0.1-1.2-0.1s-1.2-0.1-1.9-0.3
			c-0.7-0.2-0.8-1.2-0.3-3c0.5-1.8,0.8-3.2,0.7-4.3c-0.1-1-0.2-2.2-0.3-3.3c-0.4-3.4-0.2-6.7,0.4-10c0.4-2.3,0.9-4.4,1.3-6.4
			c0.4-1.9,0.8-3.8,1.2-5.8c0.9-6.1,1.2-11.2,0.8-15.4c-0.4-4.2-0.7-6.9-0.8-8.2c-0.2-2.9,0-5.7,0.5-8.4c0.3-1.6,0.7-2.9,1.3-3.7
			c0.5-0.8,1.1-1.7,1.6-2.6c1.4-2.2,2.3-4.7,2.6-7.4c0.3-2.7,0.7-5.4,1-8.2c0.3-2.8,0.7-5.9,1.2-9.3c0.5-3.5,1-7.1,1.5-11.1
			c0.6-3.9,1.2-7.7,1.9-11.4c2.3-12,4.9-19,8-21.1c0.6-0.4,1.2-0.8,2-1.2c0.8-0.5,1.7-1.1,2.9-2c1.2-0.9,2.2-1.7,3.2-2.5
			s1.9-1.5,2.9-2.1c1.8-1.1,3.8-1.4,6-0.8c2.2,0.6,3.7,1,4.7,1.2s1.9,0.3,2.9,0.3s2.2-0.1,3.5-0.4c1.4-0.3,3.3-0.7,5.8-1.2
			s5.2-0.9,8.1-1.3c2.9-0.4,5.6-0.5,8.1-0.2c8.4,0.4,14.1,4.3,17.3,11.8c1.4,3.3,1.8,6.4,1.4,9.3c-0.4,2.8-0.8,5.6-1.1,8.2
			s-0.4,5.6-0.3,8.8c0.1,3.2-0.2,6.4-1,9.4c-0.8,3.1-1.5,5.2-2,6.4c-0.5,1.2-1.1,2.3-1.7,3.4c-1,2.2-1.7,4.3-2,6.5
			c-0.4,3.5-1.2,6.3-2.3,8.4s-2.3,4.3-3.4,6.5c-3.1,5.4-6,8.7-8.7,9.9c-1.5,0.5-2.7,1-3.6,1.4c-1,0.4-1.6,1.1-1.9,2.1
			c-0.4,0.7-0.2,1.4,0.7,2.2c0.9,0.7,1.7,1.9,2.4,3.4c0.8,1.6,1.5,2.6,2.1,3c0.7,0.4,1.3,0.6,1.9,0.7c1.8,0.1,3,0.3,3.4,0.8
			c0.9,1.3,1.5,2.4,1.9,3.2c0.4,0.9,0.3,2.3-0.3,4.2c-0.6,2-1,3.9-1.1,6c-0.1,2-0.3,4.1-0.4,6.3c-0.2,2.2-0.5,4.1-1,5.6
			s-0.8,2.7-0.9,3.3l-0.2,5.2c-0.6,3.3-2,6.1-4.2,8.5s-3.8,3.8-4.9,4.2c-1.1,0.5-2,0.6-2.8,0.3c-0.8-0.3-1.5-0.6-2-1.1s-1-0.8-1.3-1
			c-0.3-0.1-0.8-0.2-1.4-0.2c-0.6,0-1.1,0-1.7-0.2c-2.2-0.3-3.3-4.7-3.3-13.3c-0.1-4.2-1.1-6.7-3-7.6c-3-1.2-4.3-3.3-4-6.4
			c0.2-1.5,0.4-3.5,0.8-6.1c0.5-5.1-0.6-8-3.2-8.8c-1.3-0.3-2.5-0.3-3.7-0.1c-1.2,0.2-2.4,1.1-3.8,2.7
			C27.2,358.7,25.8,362.2,25,366.7z M41.9,326c2-1.9,3.9-3.7,5.7-5.3s3.5-3.5,5-5.8c1.5-2.3,2.8-4.6,3.8-6.9
			c1.8-4.3,2.9-8.1,3.2-11.6c0.3-3.4,0.4-5.7,0.2-6.8s-1.4-1.4-3.5-1.1c-2.1,0.4-4.1,0.2-6-0.5c-1.9-0.7-2.9-1.8-2.8-3.3
			c0.4-3.2-0.4-4.2-2.2-3c-1,0.7-1.7,1.3-2.2,1.9c-0.5,0.5-1.1,2-1.8,4.4c-1.3,4.9-2,8.6-2,11.3c-0.1,2.7-0.1,4.4-0.2,5.3
			c0,0.9-0.1,1.8-0.3,2.8c-0.1,1-0.3,2.2-0.5,3.5c-0.2,1.3-0.4,3.3-0.8,6.1c-0.3,2.8-0.7,5.1-1.2,7.1c-0.5,1.9-0.7,3.9-0.5,5.8
			C37.9,329.2,39.9,327.9,41.9,326z"/>
		<path id="XMLID_13_" class="st0" d="M145.6,382.3c-1.1,1.6-2.3,2.9-3.7,3.9s-2.7,1.1-3.8,0.3c-1.1-0.8-1.9-1.1-2.5-0.8
			c-0.6,0.2-1.2,0.5-1.7,0.7c-1.2,0.3-2.2-0.3-3-2.1c-0.8-1.7-1.1-3.1-1.1-4.3c0.1-1.1,0.3-2.3,0.6-3.4c1-2.6,1-4.7,0.2-6.4
			c-0.9-1.7-1.4-3-1.7-3.9s-0.2-2.2,0.1-4.1c0.3-1.8,0.5-3,0.4-3.4s-0.2-0.8-0.3-1c-0.4-1.1-0.3-3,0.4-5.6s0.7-4.4,0-5.3
			s-1.7-1.4-3.1-1.7c-1.4-0.3-2.6,0.1-3.6,1.1s-2,2.2-2.9,3.6s-2,2.6-3.2,3.6c-1.2,1.1-2.6,1.5-4.1,1.4s-3.4,0.6-5.5,2.2
			c-2.1,1.6-3.6,3.2-4.3,5c-0.7,1.8-1.5,3.6-2.3,5.5s-1.3,3.5-1.4,5c-0.1,1.5-0.4,2.9-0.8,4.4c-0.5,1.5-1.1,2.9-1.8,4.4
			c-1.7,3.6-3.2,5.7-4.7,6.2c-1.2,0.3-2.4,0.6-3.7,0.6c-1.9,3-3.9,4.9-5.9,5.8c-5.5,2.2-8.5,1.8-8.9-1c-0.3-1.7-0.3-3.9,0.2-6.8
			c0.8-5.7,1-9.5,0.5-11.4s-0.3-4.3,0.7-7.3s1.7-5.9,2.1-8.7c0.4-2.8,0.8-5,1.2-6.6c0.4-1.5,0.8-2.9,1.3-4.2
			c0.4-1.3,0.9-2.5,1.3-3.7c0.5-1.2,0.9-2.6,1.3-4.2c0.4-1.6,0.9-3.4,1.7-5.6c0.8-2.1,1.6-4.3,2.3-6.6c2.1-5.6,3.2-9.8,3.5-12.5
			c0.3-2.7,0.9-5.1,2-7.1s2.2-3.9,3.4-5.6c3.1-4.4,4.8-7.8,5.1-10.3s0.6-4.5,0.8-5.9s0.5-2.9,0.9-4.4c2-7.5,7.5-19.6,16.3-36.4
			c0.7-1.6,2.1-2.9,4.3-4.1s4.3-1.7,6.3-1.4c2,0.2,3.7,0.2,5-0.1c1.4-0.3,2.6-1.1,3.8-2.3s2.4-2.4,3.6-3.5c1.3-1.1,2.7-2.2,4.4-3.1
			c1.7-0.9,3.4-1.5,5.4-1.8s3.9-0.1,5.8,0.8c3.2,1.4,5.2,2.9,6,4.5c0.8,1.6,1.3,2.9,1.5,3.9s0.5,2.4,1.1,4.2
			c0.5,1.8,0.6,3.4,0.3,4.9c-0.3,1.5-0.5,3.3-0.3,5.2c0.1,2-0.3,4.4-1.3,7.2c-1,2.8-1.5,5.5-1.5,8.1s-0.1,4.3-0.3,5.3
			c-0.2,1-0.3,1.8-0.3,2.6c-0.3,2.3-0.2,4.3,0.2,5.9c0.4,1.8,0.2,4.1-0.7,7c-0.8,2.9-1.3,5.2-1.5,7c-0.2,1.8,0.2,3.6,1,5.3
			c1.5,3.3,1.5,7.3,0,11.9c-0.4,1.3-0.6,2.6-0.7,4c-0.1,1.4-0.2,2.7-0.4,3.8c-0.2,1.2-0.6,2.7-1.2,4.5c-0.9,2.7-1.4,5.8-1.6,9.4
			c-0.5,6.7-1,11.2-1.4,13.5c-0.4,2.3-0.7,4.3-0.9,5.8c-0.2,1.6-0.4,3.2-0.6,5c-0.5,4.6-1.3,9.3-2.5,14
			C150.1,378.2,148.2,381.2,145.6,382.3z M131.7,304.8c0.7-2.6,1.3-5.8,1.5-9.6c0.3-3.7,0.6-6.5,0.9-8.4c0.3-1.8,0.5-3.4,0.5-4.8
			c0-2.1-1-2.2-3.1-0.2c-1.6-1.8-3.3-1.6-5,0.7c-1.2,1.7-2.1,4.2-2.7,7.6c-0.7,2.4-1.6,4.6-2.6,6.6c-1.1,2-1.9,4.2-2.6,6.6
			c-0.9,2.8-2.2,6.3-3.9,10.4s-2.1,7.1-1.3,8.8c0.9,1.7,2.2,2.1,4.1,1.3c1.9-0.9,3.3-1.4,4.2-1.6s1.7-0.5,2.4-0.7
			c1.6-0.4,2.9-1.3,3.9-2.6c1.1-1.3,1.7-2.4,1.9-3.3s0.4-1.8,0.4-2.8C130.5,310.1,131,307.5,131.7,304.8z"/>
		<path id="XMLID_12_" class="st0" d="M175.6,236.4c0.6-5.7,3.7-8.7,9.5-9c1.3-0.1,2.6-0.1,4-0.1s2.9-0.1,4.4-0.3
			c1.5-0.2,2.9-0.6,4.1-1.2c1.2-0.6,2.4-1.2,3.7-1.6c2.5-0.8,4.7-0.6,6.6,0.6c1.2,0.8,1.8,2.3,1.7,4.4c-0.1,2.1-0.4,4.5-0.8,7.3
			c-0.5,2.8-1,5.8-1.5,9.1c-0.6,3.3-0.7,6.6-0.4,10c0.3,3.4,0.3,6,0.1,7.8c-0.2,1.8-0.5,3.6-1,5.2c-1,4.4-1.4,8-1.3,10.8
			c0.1,2.8,0.1,4.7,0,5.7s-0.1,2-0.1,3s0.1,1.8,0.4,2.3s0.8,0.5,1.7,0c0.9-0.7,1.4-1.6,1.5-2.8c0.4-3.4,1.9-6.6,4.6-9.7
			c3.1-3.3,4.4-6.8,3.9-10.4c-0.5-3.6-0.1-7.4,1.1-11.4c1.2-4,2.5-7.5,3.7-10.7c1.2-3.1,2-5.8,2.3-8s0.6-4.3,0.8-6.3
			c0.2-2,0.5-3.7,0.8-5.2s1.2-3.2,2.6-5c1.5-1.8,3.8-3.2,6.9-4.1c3.1-0.9,6.2-0.9,9.3,0c0.7-0.7,1.7-1,3-0.9c1.2,0,2.1,0.5,2.5,1.3
			c1.9-1.4,4-2.1,6.3-2c2.3,0.1,3.8,0.6,4.2,1.7c0.5,1.1,0.5,2.3,0,3.5s-1.1,2.9-1.9,5c-3.7,9.4-6.4,18.1-7.9,26.1
			c-1.5,8-2.9,13.6-4.3,16.8c-1.3,3.2-2.6,6-3.8,8.3c-1.2,2.3-2.4,4.7-3.7,7c-3,5.3-5.1,9.7-6.4,13.2c-0.7,2-1.7,3.7-2.8,5.2
			c-1.1,1.5-2.2,3-3.3,4.6c-2.9,4.6-4.8,10.2-5.8,16.9c-1.8,12.6-3.8,19.8-6.3,21.5c-1.2,1.1-2.1,1.6-2.6,1.5
			c-0.5-0.2-1.1,0.2-1.8,1c-0.7,0.8-1.4,2.6-2.3,5.2s-2.1,5.5-3.7,8.7c-4,8.2-8.8,13.5-14.3,15.8c-3.4,1.4-5.6,1.6-6.7,0.7
			c-1.1-0.9-1.8-2.3-2-4.2s-0.3-3.8-0.3-5.9c0-2.1-0.5-3.4-1.5-4c-3.6-4-4.1-10-1.6-18c0.7-2.5,0.9-4.2,0.6-5.2
			c-0.3-0.9-0.5-1.9-0.5-3s0-2.2,0-3.4c-0.1-2.9-0.4-4.7-1-5.4c-0.6-0.7-1.1-1.4-1.6-2c-0.4-0.6-0.7-1.6-0.8-2.9
			c-0.5-3.2-0.5-7.1,0.2-11.7c0.6-4.6,1-8.1,1-10.4c0.1-2.3,0-4.5-0.1-6.4c-0.3-5-0.3-9.3,0.1-13.1c0.4-3.8,0.5-6.9,0.3-9.5
			c-0.2-2.5-0.4-5-0.7-7.5c-0.7-6.7-0.9-12-0.5-15.7s0.7-6.5,0.8-8.4C175.3,239.4,175.4,237.7,175.6,236.4z"/>
		<path id="XMLID_11_" class="st0" d="M261.2,242.7l2.6-11.8c0.4-1.9,0.6-3.8,0.6-5.7c0-1.9,0.9-4,2.5-6.3s3.8-4.5,6.5-6.6
			c2.7-2.1,5.7-3.4,8.7-3.9c3.1-0.5,5.4-0.4,7,0.4s3.1,1.4,4.5,1.8c1.4,0.4,3,0.7,4.9,0.7c4,0,8.1-1.4,12.3-3.9
			c4.6-2.9,8-3.4,10.1-1.4c2.7-0.3,5.5-1.1,8.6-2.3c5.1-2,8.4-2.6,10-2c3.5,1.8,3.2,6.6-0.9,14.4c-0.6,1.2-1,2.2-1.1,3
			c-0.2,0.8-0.3,1.6-0.5,2.5c-0.5,2.5-1,4.3-1.6,5.6c-0.6,1.3-1,2.4-1.2,3.2c-0.2,0.8-0.3,1.8-0.5,2.9c-0.2,2.1-0.9,4.3-2.2,6.5
			c-0.7,1.3-1.2,2.4-1.3,3.1c-0.1,0.8-0.3,1.5-0.4,2.2c-0.3,1.8-1.6,3.6-3.7,5.6c-3.6,3.8-6.3,5.9-8.2,6.2c-0.4,0.1-0.7,0-1.1-0.2
			c-0.3-0.2-0.9-0.4-1.6-0.5c-2.9-0.6-6-0.7-9.3-0.3c-3.3,0.3-5.8,0.8-7.4,1.5c-4,1.5-6.7,3.9-8.2,7.2c-1.6,3.5-1.9,5.9-0.7,7.5
			c0.5,0.7,1.1,1.1,1.8,1.3c0.7,0.1,1.4,0,2.2-0.3c0.7-0.3,1.7-0.5,2.9-0.4c1.2,0.1,2.4,0.2,3.6,0.4c3.3,0.2,5.6-0.1,7-0.9
			c1.3-0.8,2.2-1.2,2.6-1.2c0.4,0.1,0.7,0.2,0.9,0.4c0.7,0.8,1.5,1.1,2.2,1c2.1-0.5,3.3,0.2,3.7,2c0.4,1.8-0.2,4.3-1.8,7.4
			c-0.1,0.4-0.5,1.5-1.2,3.2c-1.5,3.4-2.4,5.8-2.5,7c-0.2,1.2-0.6,2.5-1.4,3.9s-1.7,2.6-2.8,3.8c-2.6,2.4-5.1,3.5-7.5,3.1
			c-1.1-0.3-1.9-0.9-2.7-1.7c-6.2-0.9-10.7,0.4-13.5,3.8c-1.6,1.9-2.6,3.4-2.9,4.7c-0.4,1.3-0.8,3.5-1.4,6.6l-1.4,7.6
			c1.4,0.9,2.7,2.1,3.8,3.4c1.1,1.3,2.7,1.9,4.7,1.6c2-0.2,3.9-0.7,5.6-1.5c1.7-0.8,3.3-1.5,4.8-2.3c3.3-1.9,6.2-2.6,8.6-2.2
			c2.4,0.4,3.8,1.4,4.1,2.7c0.4,1.4,0.1,3.4-0.7,5.9c-0.8,2.5-1.4,4.4-1.5,5.5c-0.2,1.2-0.3,2.2-0.5,3.2c-0.4,2.3-1.7,4.7-3.8,7.2
			c-2.3,3.2-4.3,5.2-6,6.1c-1.7,0.9-3.7,1.4-6,1.5c-2.4,0.1-4.4,0.6-6,1.5c-1.7,0.9-3.2,1.9-4.6,3.1s-2.8,2.3-4.1,3.3
			c-2.2,1.7-4.4,2.1-6.5,1.2c-0.8-0.4-1.6-0.8-2.4-1.2c-2.1-0.8-4.8-0.8-8.2,0c-3.4,0.8-6.1,0.3-8.3-1.5c-2.1-1.8-2.9-4.3-2.4-7.6
			c0.6-3.3,1.2-5.7,1.8-7.2c0.7-1.5,1.3-2.7,1.8-3.6c0.8-1.9,0.8-3.2,0-4c-2.6-2.1-3-5.3-1.3-9.7c0.8-2.3,1.5-4,2.1-5.3
			c0.6-1.3,0.9-2.6,0.9-4s0.2-2.7,0.4-3.8c0.3-1.2,0.5-2.3,0.5-3.4c0.2-2.1-0.5-3.2-2-3.2c-1.9,0.1-2.7-1.9-2.6-5.9
			c0-3.8,1-7.8,3.1-12c2.1-4.2,3.2-7.4,3.4-9.6c0.2-2.2,0.4-4.3,0.6-6.2l1.7-8c0.7-4,0.9-6.6,0.5-7.8c-0.4-1.3-0.2-3.2,0.6-6
			c0.8-2.7,1.1-4.8,1-6.1C260.8,246.1,260.9,244.5,261.2,242.7z"/>
		<path id="XMLID_10_" class="st0" d="M379.6,309.9c-0.5,6-1,10.3-1.4,12.8s-0.9,4.6-1.4,6.3c-0.5,1.7-1.1,3.2-1.7,4.7
			c-1.5,3.3-3.1,5.2-4.8,5.8c-1.2,0.2-2.4,1-3.7,2.3c-1.3,1.4-2.3,2.4-3.1,3c-0.7,0.7-1.7,1.1-2.9,1.3c-1.2,0.2-2.5,0.2-3.9,0.1
			c-1.4-0.2-2.5-1-3.3-2.6c-1.8-3.5-1.2-11.2,1.9-22.9c-1.5-1-2.4-2.8-2.6-5.3s0.6-6.3,2.4-11.5c1.8-5.2,3-9,3.6-11.3
			c0.6-2.4,1-4.3,1.1-5.8s0-2.8-0.3-3.7s-0.7-2.3-1.3-4.1c-0.5-1.8-0.8-3.6-0.7-5.4c0-1.8-0.3-3.1-0.9-3.8c-0.6-0.8-0.9-1.8-0.9-3.2
			c0-1.4-0.2-2.7-0.6-4c-0.4-1.3-0.4-3.2-0.1-5.7c0.3-2.6,0.1-4.6-0.5-6.2c-0.6-1.5-1.3-2.8-2.1-3.8c-0.7-1-1.5-2-2.2-2.9
			c-2-2.6-3.3-4.8-3.9-6.7c-0.6-1.9-0.8-3.7-0.6-5.1c0.2-1.5,0.5-2.9,0.9-4.3c1.1-3.6,1.4-6,1-7.1l-1.3-4.1
			c-1.3-4.3-1.7-7.8-1.2-10.5c0.5-2.7,1.6-4.9,3.2-6.5c1.6-1.6,3.1-2.3,4.6-2c1.4,0.3,3.4,0.5,6,0.6c2.6,0.1,4.6-0.1,6.2-0.7
			c1.5-0.6,3-1.3,4.4-2.1c3.4-1.7,6-2.3,7.8-1.9c1.8,0.4,2.9,1.4,3.2,3c0.4,1.6,0.4,3.4,0.2,5.4c-0.3,2-0.5,4.1-0.9,6.1
			c-0.3,2-0.2,3.7,0.3,5.1c0.5,1.4,1,2.5,1.3,3.5s0.5,2.1,0.6,3.2c0.1,1.1,0.1,2.3,0,3.5s-0.2,2.7-0.4,4.4c-0.1,1.7,0,2.9,0.3,3.6
			c0.4,0.7,0.9,0.9,1.5,0.8c1.6-0.5,2.9-2.4,4-5.6s2.2-5.9,3.2-8.1s2-4.2,2.8-5.9c1.8-3.5,2.7-5.9,2.7-7.1c0.1-1.3,0.2-2.6,0.4-4
			c0.2-1.4,0.7-2.8,1.4-4.1c1.8-3.2,4.8-4.9,8.9-5.1s7.4-0.4,9.9-0.8c2.5-0.3,4.6-1.2,6.3-2.7c1.6-1.5,3.2-2.3,4.5-2.4
			c1.4-0.1,2.5,0.3,3.3,1.2c1.9,2.2,1.1,5.9-2.6,11.3c-3.7,5.3-6.2,9.5-7.6,12.5c-1.4,3-2.1,5.4-2,7.3c0.1,1.9,0,3.3-0.3,4.3
			s-0.8,2-1.5,3.1c-0.7,1.1-1.6,2.4-2.6,3.9c-7.5,11.4-14.9,25.2-22.1,41.6c-3.6,8-6.9,17.7-9.7,29.1
			C381.3,304.8,380.4,307.9,379.6,309.9z"/>
		<path id="XMLID_9_" class="st0" d="M469.2,325.2c-1.1,1.6-2.3,2.9-3.7,3.9s-2.7,1.1-3.8,0.3c-1.1-0.8-1.9-1.1-2.5-0.8
			c-0.6,0.3-1.2,0.5-1.7,0.7c-1.2,0.3-2.2-0.3-3-2.1c-0.8-1.7-1.1-3.1-1.1-4.3c0.1-1.1,0.3-2.3,0.6-3.4c1-2.6,1-4.7,0.2-6.4
			c-0.9-1.7-1.4-3-1.7-3.9s-0.2-2.2,0.1-4.1c0.3-1.8,0.5-3,0.4-3.4s-0.2-0.8-0.3-1c-0.4-1.1-0.3-3,0.4-5.6s0.7-4.4,0-5.3
			s-1.7-1.4-3.1-1.7c-1.4-0.3-2.6,0.1-3.6,1.1s-2,2.2-2.9,3.6s-2,2.6-3.2,3.6c-1.2,1.1-2.6,1.5-4.1,1.4s-3.4,0.6-5.5,2.2
			c-2.2,1.6-3.6,3.2-4.3,5c-0.7,1.8-1.5,3.6-2.3,5.5s-1.3,3.5-1.4,5c-0.1,1.5-0.4,2.9-0.8,4.4c-0.5,1.5-1.1,2.9-1.8,4.4
			c-1.7,3.6-3.2,5.7-4.7,6.2c-1.2,0.3-2.4,0.6-3.7,0.6c-1.9,3-3.9,4.9-5.9,5.8c-5.5,2.2-8.5,1.8-8.9-1c-0.3-1.7-0.3-3.9,0.2-6.8
			c0.8-5.7,1-9.5,0.5-11.4s-0.3-4.3,0.7-7.3s1.7-5.9,2.1-8.7c0.4-2.8,0.8-5,1.2-6.6c0.4-1.5,0.8-2.9,1.3-4.2
			c0.4-1.3,0.9-2.5,1.3-3.7c0.5-1.2,0.9-2.6,1.3-4.2c0.4-1.6,0.9-3.4,1.7-5.6c0.8-2.1,1.6-4.3,2.3-6.6c2.1-5.6,3.2-9.8,3.5-12.5
			c0.3-2.7,0.9-5.1,2-7.1s2.2-3.9,3.4-5.6c3.1-4.4,4.8-7.8,5.1-10.3s0.6-4.5,0.8-5.9c0.2-1.4,0.5-2.9,0.9-4.4
			c2-7.5,7.5-19.6,16.3-36.4c0.7-1.6,2.1-2.9,4.3-4.1s4.3-1.7,6.3-1.4c2,0.2,3.7,0.2,5-0.1c1.4-0.3,2.6-1.1,3.8-2.3
			c1.2-1.2,2.4-2.4,3.6-3.5c1.3-1.1,2.7-2.2,4.4-3.1s3.4-1.5,5.4-1.8c1.9-0.3,3.9-0.1,5.8,0.8c3.2,1.4,5.2,2.9,6,4.5
			s1.3,2.9,1.5,3.9s0.5,2.4,1.1,4.2c0.5,1.8,0.6,3.4,0.3,4.9s-0.5,3.3-0.3,5.2c0.1,2-0.3,4.4-1.3,7.2c-1,2.8-1.5,5.5-1.5,8.1
			c0,2.6-0.1,4.3-0.3,5.3s-0.3,1.8-0.3,2.6c-0.3,2.3-0.2,4.3,0.2,5.9c0.4,1.8,0.2,4.1-0.7,7c-0.8,2.9-1.3,5.2-1.5,7s0.2,3.6,1,5.3
			c1.5,3.3,1.5,7.3,0,11.9c-0.4,1.3-0.6,2.6-0.7,4c-0.1,1.4-0.2,2.7-0.4,3.8c-0.2,1.2-0.6,2.7-1.2,4.5c-0.9,2.7-1.4,5.8-1.6,9.4
			c-0.5,6.7-1,11.2-1.4,13.5c-0.4,2.3-0.7,4.3-0.9,5.8c-0.2,1.6-0.4,3.2-0.6,5c-0.5,4.6-1.3,9.3-2.5,14
			C473.6,321.2,471.7,324.1,469.2,325.2z M455.3,247.8c0.7-2.6,1.3-5.8,1.5-9.6c0.3-3.7,0.6-6.5,0.9-8.4c0.3-1.8,0.5-3.4,0.5-4.8
			c0-2.1-1-2.2-3.1-0.2c-1.6-1.8-3.3-1.6-5,0.7c-1.2,1.7-2.1,4.2-2.7,7.6c-0.7,2.4-1.6,4.6-2.6,6.6c-1.1,2-1.9,4.2-2.6,6.6
			c-0.9,2.8-2.2,6.3-3.9,10.4c-1.7,4.1-2.1,7.1-1.3,8.8c0.9,1.7,2.2,2.1,4.1,1.3c1.9-0.9,3.3-1.4,4.2-1.6c0.9-0.2,1.7-0.5,2.4-0.7
			c1.6-0.4,2.9-1.3,3.9-2.6c1.1-1.3,1.7-2.4,1.9-3.3c0.2-0.9,0.4-1.8,0.4-2.8C454.1,253.1,454.6,250.4,455.3,247.8z"/>
		<path id="XMLID_8_" class="st0" d="M515.6,280.2l-1.3,9.7c-0.7,5.3-2.7,9-5.8,11.1c-1.8,5.6-3.1,10.5-3.9,14.8
			c-1.3,2.1-3,3.5-5.1,4.3c-3.9,1.2-6.2,0.6-6.9-2c-1-3.1-2-4.7-3-4.8c-0.2-0.1-0.6-0.1-1.2-0.1c-0.6,0-1.2-0.1-1.9-0.3
			c-0.7-0.2-0.8-1.2-0.3-3c0.5-1.8,0.8-3.2,0.7-4.3c-0.1-1-0.2-2.2-0.3-3.3c-0.4-3.4-0.2-6.7,0.4-10c0.4-2.3,0.9-4.4,1.3-6.4
			c0.4-1.9,0.8-3.8,1.2-5.8c0.9-6.1,1.2-11.2,0.8-15.4c-0.4-4.2-0.7-6.9-0.8-8.2c-0.2-2.9,0-5.7,0.5-8.4c0.3-1.6,0.7-2.9,1.3-3.7
			c0.5-0.8,1.1-1.7,1.6-2.6c1.4-2.2,2.3-4.7,2.6-7.4s0.7-5.4,1-8.2c0.3-2.8,0.7-5.9,1.2-9.3c0.5-3.5,1-7.1,1.5-11.1
			c0.6-3.9,1.2-7.7,1.9-11.4c2.3-12,4.9-19.1,8-21.1c0.6-0.4,1.2-0.8,2-1.2c0.8-0.5,1.7-1.1,2.9-2s2.2-1.7,3.2-2.5s1.9-1.5,2.9-2.1
			c1.8-1.1,3.8-1.4,6-0.8c2.2,0.6,3.7,1,4.7,1.2s1.9,0.3,2.9,0.3s2.2-0.1,3.5-0.4c1.4-0.3,3.3-0.7,5.8-1.2s5.2-0.9,8.1-1.3
			c2.9-0.4,5.6-0.5,8.1-0.2c8.4,0.4,14.1,4.3,17.3,11.8c1.4,3.3,1.8,6.4,1.4,9.3c-0.4,2.8-0.8,5.6-1.1,8.2c-0.3,2.6-0.4,5.6-0.3,8.8
			c0.1,3.2-0.2,6.4-1,9.4c-0.8,3.1-1.5,5.2-2,6.4s-1.1,2.3-1.7,3.4c-1,2.2-1.7,4.3-2,6.5c-0.4,3.5-1.2,6.3-2.3,8.4
			c-1.1,2.1-2.3,4.3-3.4,6.5c-3.1,5.4-6,8.7-8.7,9.9c-1.5,0.5-2.7,1-3.6,1.4c-1,0.4-1.6,1.1-1.9,2.1c-0.4,0.7-0.2,1.4,0.7,2.2
			c0.9,0.7,1.7,1.9,2.4,3.4c0.8,1.6,1.5,2.6,2.1,3c0.7,0.4,1.3,0.6,1.9,0.7c1.8,0.1,3,0.3,3.4,0.8c0.9,1.3,1.5,2.4,1.9,3.2
			c0.4,0.9,0.3,2.3-0.3,4.2c-0.6,2-1,3.9-1.1,6c-0.1,2-0.3,4.1-0.4,6.3c-0.2,2.2-0.5,4.1-1,5.6s-0.8,2.7-0.9,3.3l-0.2,5.2
			c-0.6,3.3-2,6.1-4.2,8.5s-3.8,3.8-4.9,4.2c-1.1,0.5-2,0.6-2.8,0.3c-0.8-0.3-1.5-0.6-2-1.1s-1-0.8-1.3-1c-0.3-0.1-0.8-0.2-1.4-0.2
			c-0.6,0-1.1,0-1.7-0.2c-2.2-0.3-3.3-4.7-3.3-13.3c-0.1-4.2-1.1-6.7-3-7.6c-3-1.2-4.3-3.3-4-6.4c0.2-1.5,0.4-3.5,0.8-6.1
			c0.5-5.1-0.6-8-3.2-8.8c-1.3-0.3-2.5-0.3-3.7-0.1s-2.4,1.1-3.8,2.7C517.8,272.2,516.5,275.6,515.6,280.2z M532.6,239.5
			c2-1.9,3.9-3.7,5.7-5.3s3.5-3.5,5-5.8s2.8-4.6,3.8-6.9c1.8-4.3,2.9-8.1,3.2-11.6c0.3-3.4,0.4-5.7,0.2-6.8
			c-0.2-1.1-1.4-1.4-3.5-1.1c-2.1,0.4-4.1,0.2-6-0.5c-1.9-0.7-2.9-1.8-2.8-3.3c0.4-3.2-0.4-4.2-2.2-3c-1,0.7-1.7,1.3-2.2,1.9
			c-0.5,0.5-1.1,2-1.8,4.4c-1.3,4.9-2,8.6-2,11.3c-0.1,2.7-0.1,4.4-0.2,5.3c0,0.9-0.1,1.8-0.3,2.8c-0.1,1-0.3,2.2-0.5,3.5
			s-0.4,3.3-0.8,6.1c-0.3,2.8-0.7,5.1-1.2,7.1c-0.5,1.9-0.7,3.9-0.5,5.8C528.5,242.7,530.6,241.4,532.6,239.5z"/>
		<path id="XMLID_7_" class="st0" d="M664.6,163c1.1,1.2,1.7,3.1,1.5,5.7s-0.1,6.6,0.2,12c0.2,5.4-1.2,11.4-4.2,18.2
			c-1.7,3.9-2.9,7-3.6,9.4c-1.6,4.5-3.2,8.4-4.7,11.6s-3.2,7.2-4.9,11.8c-1.7,4.6-3.6,8.6-5.6,12.1s-3.6,6-4.7,7.7
			c-1.1,1.7-2.1,3.1-3,4.5c-2.1,3.4-3.5,6-4.1,7.7c-0.6,1.7-1.4,3.6-2.4,5.7c-0.9,2.1-2.1,4.2-3.3,6.2c-3.3,4.8-6.5,7-9.8,6.5
			c-5.1,4.5-8.4,7.9-10.1,10.2c-1.7,2.3-3.1,4.1-4.3,5.2c-1.2,1.1-2.3,2-3.4,2.6s-2,1.1-3,1.5s-1.9,1.1-3,1.9
			c-1,0.8-2.4,1.6-4.1,2.4c-1.7,0.8-3.3,1.1-4.9,1c-4-0.1-5.5-3.3-4.5-9.5c-3.1-0.8-5-1.7-5.6-2.8c-1.6-2.1-2-5.1-1.3-9
			s1.5-7.1,2.4-9.6s1.7-4.8,2.5-7.1c2.2-5.5,3.1-9.8,2.9-12.7c-0.2-2.9,0.1-5.8,0.9-8.5c0.8-2.7,1.4-5.7,1.9-8.9
			c0.4-3.2,0.9-6,1.6-8.5c0.7-2.5,1.3-4.9,1.9-7.2c0.6-2.3,1.1-4.4,1.5-6.3c0.4-1.9,0.3-3.7-0.1-5.2c-0.4-1.6-0.7-3.2-0.8-4.9
			c-0.1-1.7-0.2-3.3-0.1-4.7c0.3-3.6,0.2-6.2-0.3-7.7s-0.5-3.4,0-5.7c0.6-2.3,0.8-4.5,0.8-6.7c0-2.2,0.1-3.9,0.4-5.2
			c0.3-1.3,0.4-2.7,0.4-4c-0.1-1.4,0.2-2.2,0.8-2.6c0.8-0.5,1.9-2.4,3.1-5.5c1.2-3.1,2.3-5.1,3.4-6c1-0.9,2.1-1.8,3.3-2.6
			c1.1-0.8,2.4-1.4,3.7-1.9c3-0.9,5.6-0.9,7.9,0.2c2.2,1.1,3.9,1.4,5.2,1.1c1.2-0.3,2.6-1,4-1.9c4.4-2.5,8.6-4.1,12.4-4.8
			c3.8-0.7,6.5-0.9,7.9-0.7s2.6,0.5,3.4,0.8c0.8,0.3,1.6,0.6,2.3,1c0.7,0.3,1.9,0.4,3.5,0.1c1.6-0.3,2.7-0.1,3.3,0.6
			s1.2,1.5,1.7,2.5s1.1,1.9,1.8,2.9c0.7,0.9,1.7,1.4,3.2,1.5c1.4,0.1,2.3,0.3,2.7,0.5c0.4,0.3,0.7,0.6,0.8,1c0.2,0.4,0.3,1,0.5,1.6
			C662.8,160.9,663.4,161.8,664.6,163z M618,201.8c-1.6,1.7-2.5,4.2-2.9,7.6c-0.4,3.3-0.6,7-0.8,11c-0.1,4.1-0.5,7.5-1.2,10.2
			c-0.6,2.8-1.4,5.5-2.2,8.1c-0.8,2.7-1.6,5.3-2.4,8c-0.8,2.7-1.5,5.2-1.9,7.8c-0.5,2.5-0.5,4.3-0.1,5.3s1,1.4,1.8,1.2
			c0.8-0.2,1.7-0.9,2.6-2c1-1.2,1.8-3,2.6-5.4s2-4.9,3.8-7.4s3.3-5,4.5-7.4c1.2-2.5,2-4.3,2.4-5.4c0.4-1.1,0.7-2.1,1-3.1
			c0.3-0.9,0.6-1.9,0.8-2.9c0.3-1,0.9-2.7,2-5s1.5-4.3,1.4-5.9c-0.1-1.6-0.1-3.5,0-5.7c0.2-2.1,0.1-4.1-0.1-5.8
			c-0.2-1.7-1.3-2.8-3.2-3.1c-0.8-0.1-1.6-0.4-2.2-0.8c-0.6-0.4-1.2-0.8-1.7-1.1C621,199.4,619.6,200.1,618,201.8z"/>
	</g>
	<g id="XMLID_2_">
		<path id="XMLID_5_" class="st0" d="M48,167.7c0.3,2.9,0.4,5.4,0.2,7.4l-0.6,4.8c-0.1,1.1-0.1,2.5,0,4.3s-0.1,3-0.5,3.8
			c-0.5,0.7-1.2,1.2-2.3,1.4s-1.9,0.1-2.5-0.1c-0.6-0.3-1.2-0.6-1.7-0.9c-1.3-0.7-2.4-0.8-3.2-0.3s-1.4,1.3-1.7,2.3
			s-0.5,2.2-0.6,3.6c-0.2,2-0.2,4.7,0,7.9c0.1,1.2,0.1,2.1,0,2.8c0,0.7,0,1.3,0,1.8c0,1.2,0.2,2.4,0.6,3.6c0.4,1.2,0.6,2.1,0.6,2.6
			s-0.1,1.1-0.2,1.4c-0.2,0.4-0.4,0.7-0.7,0.9c-0.3,0.2-0.6,0.5-0.9,0.7c-0.3,0.2-0.5,0.5-0.8,0.7s-0.6,0.5-0.9,0.7
			c0.3,3.2,0.4,5.7,0.2,7.6c-0.2,1.9-0.3,3.4-0.4,4.7c-0.1,1.3-0.4,2.3-1,3c-0.8,0.9-2.3,1.6-4.7,2c-1.4,0.1-2.4-0.6-3-2.1
			c-0.7-1.5-0.9-3.2-0.8-5.3s0-3.7-0.1-4.8c-0.2-1.1-0.4-2.1-0.7-2.9s-0.6-1.5-0.8-2.1c-0.3-0.6-0.5-1.5-0.7-2.6
			c-0.2-1.1-0.1-2.3,0.4-3.6c-0.9-1-1.5-2.1-1.9-3.3c-0.3-1.2-0.3-2.7,0.1-4.6c0.4-1.9,0.7-3.7,0.9-5.2c0.2-1.6,0.2-3,0.1-4.3
			c-0.1-3-0.8-4.7-2.1-5.2c-0.9-0.3-1.9,0-3,0.7c-1.1,0.7-1.9,1.2-2.5,1.4s-1.2,0.1-1.7-0.4c-0.6-0.5-0.8-1-0.8-1.7
			c0-0.6,0.1-1.4,0.3-2.1c0.2-0.7,0.4-1.5,0.5-2.2c0.2-0.7,0.1-1.4-0.1-2.1c-0.3-0.6-0.6-1.1-1-1.3c-0.4-0.2-0.7-0.5-1.1-1
			c-0.8-1-1.1-2.9-0.7-5.5c0.4-2.6,0.7-4.8,0.9-6.5c0.2-1.7,0.3-2.9,0.4-3.8c0.1-0.8,0.3-1.5,0.6-2.2c0.3-0.6,0.8-1.2,1.5-1.8
			c1.6-1.2,3.7-1.6,6.3-1.3c12,1.6,18.8,2.2,20.4,1.7c0.6-0.2,1.2-0.4,1.8-0.6C44.6,158,47.2,160.6,48,167.7z"/>
		<path id="XMLID_4_" class="st0" d="M60.9,159.6c4.6-1.4,7.3-0.5,8,2.5c0.3,1.1,0.3,2,0.2,2.7c-0.1,0.7-0.2,1.5-0.2,2.3v2.9
			c0,2.7-0.1,4.5-0.3,5.6c-0.2,1.1-0.2,2.3-0.1,3.8c0.1,1.4,0.1,2.8-0.1,4.1c-0.2,1.3-0.2,2.2,0,2.6c0.3,0.5,0.6,0.8,1,1.1
			c0.5,0.4,1.2,0.6,2.1,0.6c1.4,0,2.4-0.6,2.8-2c0.2-0.6,0.2-1.6,0-3c-0.2-1.4-0.2-2.8,0-4.2c0.1-1.4,0.1-2.6,0-3.8
			c-0.2-1.1-0.3-2.4-0.4-3.7c-0.1-1.3-0.1-2.6-0.1-4c0-3.2,0.4-5.2,1.1-6.1c0.7-0.8,1.8-1.5,3.4-1.9c1.5-0.4,3.2-0.6,4.9-0.6
			c4.1,0,6.8,0.9,8.1,2.7c0.6,0.8,0.9,1.6,0.9,2.3c0,0.7,0,1.4-0.1,1.8s-0.1,0.9,0,1.5c0.2,1.6,0.1,3.1-0.3,4.7
			c-0.4,1.6-0.7,3.1-0.8,4.6c-0.2,1.5-0.3,3.1-0.3,4.9c-0.2,2.9-0.3,6.1-0.3,9.4c0,5.9-0.2,9.7-0.7,11.2c-1.1,3.3-1.3,5.8-0.6,7.5
			c0.2,0.5,0.3,1,0.2,1.6c0,0.6-0.1,1.3-0.1,2s0,1.4,0,2c0,0.7,0.2,1.4,0.5,2.2c0.6,1.8,0,3.6-1.7,5.6c-0.6,0.7-0.8,1.8-0.8,3.4
			c0.1,1.6,0.1,2.8,0.1,3.5s-0.2,1.3-0.5,1.7c-0.4,0.4-1.1,0.7-2.2,1.1c-1.1,0.4-2.4,0.6-3.8,0.8c-3.5,0.3-5.6-0.4-6.5-2.1
			c-0.8-1.4-1-4.3-0.5-8.5c0.4-4.3,0.7-7.5,0.9-9.6c0.2-2.1,0.1-3.6-0.1-4.5c-0.3-0.8-0.7-1.4-1.3-1.6s-1.2-0.3-1.9-0.2
			c-1.4,0.1-2.4,0.6-2.9,1.3c0.1,1.5,0.1,3.6,0.1,6.2c0,2.6,0,5.3-0.1,8c-0.2,6.6-0.4,10.1-0.7,10.5c-0.3,0.4-0.8,0.7-1.6,0.9
			c-0.8,0.2-1.6,0.3-2.5,0.3c-2.1,0.1-3.5-0.2-4.1-1c-0.7-0.8-1.2-1.4-1.6-1.9c-0.4-0.5-0.9-0.8-1.6-1c-0.7-0.2-1.1-0.6-1.2-1.1
			c-0.1-0.5-0.3-1.2-0.4-2c-0.3-1.8-0.3-3,0-3.5s0.5-1.2,0.5-2s-0.1-1.4-0.3-1.6c-0.3-0.2-0.5-1.2-0.7-2.8s-0.4-3.5-0.5-5.5
			s-0.2-4-0.2-5.8s0.2-3.2,0.6-4.2c0.9-2.1,1-4.1,0.2-6.1c-0.7-2-1.2-3.5-1.3-4.6c-0.1-1.1-0.2-2.2-0.3-3.1
			c-0.1-2.4-0.2-3.9-0.4-4.6c-0.2-0.6-0.3-1.5-0.4-2.7c-0.1-1.1-0.1-2.4-0.1-3.7c0-1.3,0-2.6,0-4c0-1.4,0-2.9-0.1-4.6
			s-0.1-3.4,0.1-5.1c0.2-1.7,0.7-3,1.8-3.9c1-0.9,2.2-1.5,3.7-1.7C58.9,157,59.8,158.2,60.9,159.6z"/>
		<path id="XMLID_3_" class="st0" d="M95.2,174.1l0.2-5.6c0-0.9-0.1-1.8-0.2-2.7c-0.2-0.9,0.1-1.9,0.7-2.9c0.6-1,1.5-1.9,2.8-2.7
			c1.2-0.8,2.6-1.2,4.2-1.2s2.8,0.3,3.7,0.8s1.8,0.9,2.5,1.3c0.8,0.3,1.7,0.6,2.6,0.8c2.1,0.3,4.1,0,6.1-0.9c2.1-1,3.9-1,5.2,0.2
			c1.4,0.1,2.8-0.1,4.3-0.4c2.5-0.5,4.2-0.6,5.1-0.1c2,1.2,2.3,3.5,1,7c-0.2,0.5-0.3,1-0.3,1.4c0,0.4,0,0.8,0,1.2
			c0,1.2-0.1,2.1-0.3,2.6c-0.2,0.6-0.3,1.1-0.3,1.5c0,0.4,0,0.8,0,1.4c0.1,1,0,2.1-0.5,3c-0.3,0.6-0.4,1.1-0.4,1.4c0,0.4,0,0.7,0,1
			c0,0.8-0.5,1.7-1.4,2.4c-1.5,1.6-2.7,2.3-3.7,2.3c-0.2,0-0.4-0.1-0.6-0.2c-0.2-0.1-0.5-0.3-0.9-0.4c-1.6-0.5-3.2-0.8-4.9-1
			c-1.7-0.1-3-0.1-3.8,0.1c-2,0.4-3.2,1.3-3.6,2.8c-0.5,1.6-0.4,2.8,0.4,3.6c0.3,0.4,0.7,0.7,1.1,0.8c0.4,0.1,0.8,0.1,1.1,0
			c0.4-0.1,0.8-0.1,1.5,0c0.6,0.1,1.3,0.3,1.9,0.5c1.8,0.4,2.9,0.4,3.6,0.1c0.6-0.3,1-0.4,1.3-0.3c0.2,0.1,0.4,0.2,0.5,0.3
			c0.5,0.5,0.9,0.7,1.3,0.7c1-0.1,1.8,0.4,2.1,1.3c0.4,0.9,0.3,2.1-0.2,3.5c0,0.2-0.1,0.7-0.3,1.5c-0.5,1.6-0.7,2.6-0.6,3.2
			c0,0.6-0.1,1.2-0.3,1.8c-0.3,0.6-0.6,1.2-1.1,1.6c-1.1,1-2.3,1.3-3.6,0.9c-0.6-0.3-1.1-0.6-1.6-1.1c-3.3-1-5.6-0.7-6.7,0.7
			c-0.7,0.8-1,1.5-1.1,2.1c-0.1,0.6-0.1,1.6-0.1,3.1v3.6c0.8,0.6,1.6,1.3,2.3,2s1.6,1.2,2.6,1.2c1,0.1,2,0,2.8-0.2s1.6-0.5,2.3-0.7
			c1.6-0.6,3-0.8,4.3-0.3c1.3,0.4,2.1,1,2.4,1.7c0.3,0.7,0.4,1.7,0.2,2.8s-0.3,2-0.2,2.6c0,0.6,0,1.1,0,1.5c0,1.1-0.4,2.2-1.3,3.2
			c-0.9,1.4-1.8,2.2-2.5,2.5s-1.8,0.4-3,0.2c-1.2-0.2-2.2-0.1-3,0.2c-0.8,0.3-1.5,0.7-2.1,1.1c-0.6,0.5-1.2,0.9-1.8,1.3
			c-1,0.6-2.1,0.6-3.3,0c-0.5-0.3-0.9-0.5-1.4-0.8c-1.2-0.6-2.6-0.8-4.3-0.7c-1.7,0.1-3.2-0.4-4.5-1.5c-1.3-1.1-2-2.4-2-4
			c0-1.6,0-2.7,0.2-3.4c0.2-0.7,0.4-1.2,0.6-1.6c0.3-0.8,0.1-1.5-0.4-2c-1.6-1.2-2.1-2.9-1.7-4.9c0.2-1,0.4-1.9,0.6-2.4
			s0.2-1.2,0.1-1.9c-0.1-0.7-0.2-1.3-0.1-1.9c0-0.6,0-1.1,0-1.6c-0.1-1-0.6-1.6-1.4-1.8c-1-0.1-1.6-1.2-2-3.1s-0.2-3.8,0.4-5.7
			c0.7-1.9,1-3.4,0.8-4.4c-0.1-1.1-0.2-2.1-0.3-3l0.1-3.8c0-1.9-0.2-3.2-0.5-3.8c-0.3-0.6-0.4-1.6-0.3-2.9c0.1-1.3,0.1-2.2-0.1-2.9
			S95.2,175,95.2,174.1z"/>
	</g>
</g>
<g id="XMLID_337_">
	<g id="XMLID_338_">
		<path id="XMLID_339_" d="M-49.5,363.1c-3.6,0.6-4.9-0.8-4-4.5c0.8-2.9,1.2-5.2,1.1-6.9c-0.1-2.9,0.2-5.1,0.8-6.5
			c1.8-4.3,6.1-6,13-5.1c1.2,0.2,2.2,0.2,3,0.1c0.8-0.1,1.6-0.3,2.3-0.6c2.4-0.8,4.5-1.2,6.3-1.2s3.4-0.2,4.8-0.6
			c1.4-0.4,2.8-0.8,4.1-1.3c1.3-0.5,2.4-1,3.5-1.4c1.1-0.5,2.1-0.8,3-0.9c1.3-0.2,2,0.7,2.2,2.9c0.2,2.2-0.1,4.6-0.7,7.4
			c-1.7,7-4,11.3-6.9,12.9c-2.1,1.2-4.2,2.8-6.2,4.9c-2.1,2.1-3.2,4.8-3.4,8.2c-0.2,3.4-0.5,6.1-0.8,8.1s-0.6,3.7-1,5.1
			c-0.3,1.4-0.6,2.7-0.9,3.7s-0.4,2.3-0.5,3.9c-0.1,1.5-0.6,3.6-1.4,6.3c-0.8,2.7-1.9,5.1-3.1,7.3c-3.1,5.3-6.2,7.6-9.3,7
			c-2.3-0.4-4.2-2.2-5.9-5.3c-0.5-1.1-1.1-2-1.6-2.8s-1.4-0.9-2.6-0.3c-1.2,0.5-2.3,1.4-3.4,2.6c-1,1.2-2.1,2.4-3.2,3.6
			c-6.7,8.1-13.8,10.3-21.2,6.7c-3.8-1.7-6.1-4.3-7.1-7.7c-0.3-1.5-0.7-3.3-1-5.2c-0.3-1.9-0.8-3.8-1.3-5.5c-1.2-4.2-2.6-6.8-4.3-8
			c-1.5-1.2-1.2-8.4,1.1-21.6c0.4-2.8,0.9-5.4,1.6-7.5c0.7-2.2,1.3-4.9,1.9-8.2l1.8-9.4c0.6-3,1-5.9,1.4-8.6
			c0.8-4.4,1.9-8.3,3.1-11.7c-3.6-2.1-4.1-7.4-1.7-15.8c1.6-5.3,3.3-9.3,4.9-11.9c1.7-2.6,3.1-5.2,4.2-7.7c1.2-2.5,2.4-5.2,3.6-8
			c1.3-2.8,2.7-4.7,4.3-5.8s2.6-1.9,3.1-2.5s1-1.2,1.5-1.8c3.2-4.3,8.9-7.8,17.2-10.6c3.7-1.3,7.2-1.6,10.4-0.8
			c3.2,0.8,5.9,1.1,8.2,0.9c2.3-0.1,4.4-0.3,6.4-0.5c8.7-1,14.1,0,16.2,2.9c1.5,2,2.3,4.1,2.3,6.4c0.1,2.3,0.4,4.1,0.9,5.4
			c0.6,1.3,0.6,2.7,0,4.4c-0.6,1.6-0.8,2.9-0.8,3.9s-0.3,2.1-0.9,3.2c-0.6,1.2-1.2,2.3-1.8,3.5c-1.3,3-1.6,5-0.9,6.1s1.4,2,2,2.9
			s1,1.8,1.1,2.9c0.6,2.5,0.3,4.8-0.9,6.9c-1.3,2.1-2.6,4.1-4,6.1s-3,3.2-4.7,3.6c-4.6,1.2-7.7,2.5-9.5,4c-1.8,1.4-3.2,2.4-4.3,3
			c-2.8,1.7-5.1,2-7,0.8c-3.3-1.1-4.2-4.2-2.8-9c1.3-5.8-0.1-8.6-4.2-8.4c-1.9,0.1-4,1-6.3,2.9s-4.3,4.1-5.9,6.8
			c-3.9,6.9-5.3,12.9-4.3,18c0.3,1.3,0.2,2.9-0.2,5l-1,5.3c-0.6,3.1-1.4,5.5-2.4,7.2c-1,1.6-1.7,3.4-2.2,5.5c-0.5,2-1,4.3-1.4,6.9
			c-0.4,2.6-0.8,5.3-1,8.2c-0.2,2.9-0.3,5.5-0.3,7.9c0.3,5.5,1.8,7.9,4.4,7.2c2-0.4,3.8-1.7,5.4-3.9c0.5-0.9,1.1-1.8,1.8-2.7
			s1.6-1.7,2.7-2.4c1.1-0.7,2-1.6,2.7-2.8c0.7-1.2,1.1-2.5,1.4-4c0.4-1.7,0.9-5,1.5-10C-47.4,362.6-48.5,362.9-49.5,363.1z"/>
		<path id="XMLID_341_" d="M21,362.8l-1.3,9.7c-0.7,5.3-2.7,9-5.8,11.1c-1.8,5.6-3.1,10.5-3.9,14.8c-1.3,2.1-3,3.5-5.1,4.3
			c-3.9,1.2-6.2,0.6-6.9-2c-1-3.1-2-4.7-3-4.8c-0.2-0.1-0.6-0.1-1.2-0.1s-1.2-0.1-1.9-0.3c-0.7-0.2-0.8-1.2-0.3-3
			c0.5-1.8,0.8-3.2,0.7-4.3c-0.1-1-0.2-2.2-0.3-3.3c-0.4-3.4-0.2-6.7,0.4-10c0.4-2.3,0.9-4.4,1.3-6.4c0.4-1.9,0.8-3.8,1.2-5.8
			c0.9-6.1,1.2-11.2,0.8-15.4c-0.4-4.2-0.7-6.9-0.8-8.2c-0.2-2.9,0-5.7,0.5-8.4c0.3-1.6,0.7-2.9,1.3-3.7c0.5-0.8,1.1-1.7,1.6-2.6
			c1.4-2.2,2.3-4.7,2.6-7.4c0.3-2.7,0.7-5.4,1-8.2c0.3-2.8,0.7-5.9,1.2-9.3c0.5-3.5,1-7.1,1.5-11.1c0.6-3.9,1.2-7.7,1.9-11.4
			c2.3-12,4.9-19,8-21.1c0.6-0.4,1.2-0.8,2-1.2c0.8-0.5,1.7-1.1,2.9-2c1.2-0.9,2.2-1.7,3.2-2.5s1.9-1.5,2.9-2.1
			c1.8-1.1,3.8-1.4,6-0.8c2.2,0.6,3.7,1,4.7,1.2s1.9,0.3,2.9,0.3s2.2-0.1,3.5-0.4c1.4-0.3,3.3-0.7,5.8-1.2s5.2-0.9,8.1-1.3
			c2.9-0.4,5.6-0.5,8.1-0.2c8.4,0.4,14.1,4.3,17.3,11.8c1.4,3.3,1.8,6.4,1.4,9.3c-0.4,2.8-0.8,5.6-1.1,8.2s-0.4,5.6-0.3,8.8
			c0.1,3.2-0.2,6.4-1,9.4c-0.8,3.1-1.5,5.2-2,6.4c-0.5,1.2-1.1,2.3-1.7,3.4c-1,2.2-1.7,4.3-2,6.5c-0.4,3.5-1.2,6.3-2.3,8.4
			s-2.3,4.3-3.4,6.5c-3.1,5.4-6,8.7-8.7,9.9c-1.5,0.5-2.7,1-3.6,1.4c-1,0.4-1.6,1.1-1.9,2.1c-0.4,0.7-0.2,1.4,0.7,2.2
			c0.9,0.7,1.7,1.9,2.4,3.4c0.8,1.6,1.5,2.6,2.1,3c0.7,0.4,1.3,0.6,1.9,0.7c1.8,0.1,3,0.3,3.4,0.8c0.9,1.3,1.5,2.4,1.9,3.2
			c0.4,0.9,0.3,2.3-0.3,4.2c-0.6,2-1,3.9-1.1,6c-0.1,2-0.3,4.1-0.4,6.3c-0.2,2.2-0.5,4.1-1,5.6s-0.8,2.7-0.9,3.3l-0.2,5.2
			c-0.6,3.3-2,6.1-4.2,8.5s-3.8,3.8-4.9,4.2c-1.1,0.5-2,0.6-2.8,0.3c-0.8-0.3-1.5-0.6-2-1.1s-1-0.8-1.3-1c-0.3-0.1-0.8-0.2-1.4-0.2
			c-0.6,0-1.1,0-1.7-0.2c-2.2-0.3-3.3-4.7-3.3-13.3c-0.1-4.2-1.1-6.7-3-7.6c-3-1.2-4.3-3.3-4-6.4c0.2-1.5,0.4-3.5,0.8-6.1
			c0.5-5.1-0.6-8-3.2-8.8c-1.3-0.3-2.5-0.3-3.7-0.1c-1.2,0.2-2.4,1.1-3.8,2.7C23.2,354.8,21.8,358.3,21,362.8z M37.9,322.1
			c2-1.9,3.9-3.7,5.7-5.3s3.5-3.5,5-5.8c1.5-2.3,2.8-4.6,3.8-6.9c1.8-4.3,2.9-8.1,3.2-11.6c0.3-3.4,0.4-5.7,0.2-6.8
			s-1.4-1.4-3.5-1.1c-2.1,0.4-4.1,0.2-6-0.5c-1.9-0.7-2.9-1.8-2.8-3.3c0.4-3.2-0.4-4.2-2.2-3c-1,0.7-1.7,1.3-2.2,1.9
			c-0.5,0.5-1.1,2-1.8,4.4c-1.3,4.9-2,8.6-2,11.3c-0.1,2.7-0.1,4.4-0.2,5.3c0,0.9-0.1,1.8-0.3,2.8c-0.1,1-0.3,2.2-0.5,3.5
			c-0.2,1.3-0.4,3.3-0.8,6.1c-0.3,2.8-0.7,5.1-1.2,7.1c-0.5,1.9-0.7,3.9-0.5,5.8C33.9,325.3,35.9,324,37.9,322.1z"/>
		<path id="XMLID_344_" d="M141.6,378.4c-1.1,1.6-2.3,2.9-3.7,3.9s-2.7,1.1-3.8,0.3c-1.1-0.8-1.9-1.1-2.5-0.8
			c-0.6,0.2-1.2,0.5-1.7,0.7c-1.2,0.3-2.2-0.3-3-2.1c-0.8-1.7-1.1-3.1-1.1-4.3c0.1-1.1,0.3-2.3,0.6-3.4c1-2.6,1-4.7,0.2-6.4
			c-0.9-1.7-1.4-3-1.7-3.9s-0.2-2.2,0.1-4.1c0.3-1.8,0.5-3,0.4-3.4s-0.2-0.8-0.3-1c-0.4-1.1-0.3-3,0.4-5.6s0.7-4.4,0-5.3
			s-1.7-1.4-3.1-1.7c-1.4-0.3-2.6,0.1-3.6,1.1s-2,2.2-2.9,3.6s-2,2.6-3.2,3.6c-1.2,1.1-2.6,1.5-4.1,1.4s-3.4,0.6-5.5,2.2
			c-2.1,1.6-3.6,3.2-4.3,5c-0.7,1.8-1.5,3.6-2.3,5.5s-1.3,3.5-1.4,5c-0.1,1.5-0.4,2.9-0.8,4.4c-0.5,1.5-1.1,2.9-1.8,4.4
			c-1.7,3.6-3.2,5.7-4.7,6.2c-1.2,0.3-2.4,0.6-3.7,0.6c-1.9,3-3.9,4.9-5.9,5.8c-5.5,2.2-8.5,1.8-8.9-1c-0.3-1.7-0.3-3.9,0.2-6.8
			c0.8-5.7,1-9.5,0.5-11.4s-0.3-4.3,0.7-7.3s1.7-5.9,2.1-8.7c0.4-2.8,0.8-5,1.2-6.6c0.4-1.5,0.8-2.9,1.3-4.2
			c0.4-1.3,0.9-2.5,1.3-3.7c0.5-1.2,0.9-2.6,1.3-4.2c0.4-1.6,0.9-3.4,1.7-5.6c0.8-2.1,1.6-4.3,2.3-6.6c2.1-5.6,3.2-9.8,3.5-12.5
			c0.3-2.7,0.9-5.1,2-7.1s2.2-3.9,3.4-5.6c3.1-4.4,4.8-7.8,5.1-10.3s0.6-4.5,0.8-5.9s0.5-2.9,0.9-4.4c2-7.5,7.5-19.6,16.3-36.4
			c0.7-1.6,2.1-2.9,4.3-4.1s4.3-1.7,6.3-1.4c2,0.2,3.7,0.2,5-0.1c1.4-0.3,2.6-1.1,3.8-2.3c1.2-1.2,2.4-2.4,3.6-3.5
			c1.3-1.1,2.7-2.2,4.4-3.1c1.7-0.9,3.4-1.5,5.4-1.8s3.9-0.1,5.8,0.8c3.2,1.4,5.2,2.9,6,4.5c0.8,1.6,1.3,2.9,1.5,3.9
			s0.5,2.4,1.1,4.2c0.5,1.8,0.6,3.4,0.3,4.9c-0.3,1.5-0.5,3.3-0.3,5.2c0.1,2-0.3,4.4-1.3,7.2c-1,2.8-1.5,5.5-1.5,8.1
			c0,2.6-0.1,4.3-0.3,5.3c-0.2,1-0.3,1.8-0.3,2.6c-0.3,2.3-0.2,4.3,0.2,5.9c0.4,1.8,0.2,4.1-0.7,7c-0.8,2.9-1.3,5.2-1.5,7
			c-0.2,1.8,0.2,3.6,1,5.3c1.5,3.3,1.5,7.3,0,11.9c-0.4,1.3-0.6,2.6-0.7,4c-0.1,1.4-0.2,2.7-0.4,3.8c-0.2,1.2-0.6,2.7-1.2,4.5
			c-0.9,2.7-1.4,5.8-1.6,9.4c-0.5,6.7-1,11.2-1.4,13.5c-0.4,2.3-0.7,4.3-0.9,5.8c-0.2,1.6-0.4,3.2-0.6,5c-0.5,4.6-1.3,9.3-2.5,14
			C146.1,374.3,144.2,377.3,141.6,378.4z M127.7,300.9c0.7-2.6,1.3-5.8,1.5-9.6c0.3-3.7,0.6-6.5,0.9-8.4c0.3-1.8,0.5-3.4,0.5-4.8
			c0-2.1-1-2.2-3.1-0.2c-1.6-1.8-3.3-1.6-5,0.7c-1.2,1.7-2.1,4.2-2.7,7.6c-0.7,2.4-1.6,4.6-2.6,6.6c-1.1,2-1.9,4.2-2.6,6.6
			c-0.9,2.8-2.2,6.3-3.9,10.4s-2.1,7.1-1.3,8.8c0.9,1.7,2.2,2.1,4.1,1.3c1.9-0.9,3.3-1.4,4.2-1.6s1.7-0.5,2.4-0.7
			c1.6-0.4,2.9-1.3,3.9-2.6c1.1-1.3,1.7-2.4,1.9-3.3s0.4-1.8,0.4-2.8C126.5,306.2,127,303.6,127.7,300.9z"/>
		<path id="XMLID_347_" d="M171.6,232.5c0.6-5.7,3.7-8.7,9.5-9c1.3-0.1,2.6-0.1,4-0.1s2.9-0.1,4.4-0.3s2.9-0.6,4.1-1.2
			c1.2-0.6,2.4-1.2,3.7-1.6c2.5-0.8,4.7-0.6,6.6,0.6c1.2,0.8,1.8,2.3,1.7,4.4c-0.1,2.1-0.4,4.5-0.8,7.3c-0.5,2.8-1,5.8-1.5,9.1
			c-0.6,3.3-0.7,6.6-0.4,10c0.3,3.4,0.3,6,0.1,7.8c-0.2,1.8-0.5,3.6-1,5.2c-1,4.4-1.4,8-1.3,10.8c0.1,2.8,0.1,4.7,0,5.7
			s-0.1,2-0.1,3s0.1,1.8,0.4,2.3s0.8,0.5,1.7,0c0.9-0.7,1.4-1.6,1.5-2.8c0.4-3.4,1.9-6.6,4.6-9.7c3.1-3.3,4.4-6.8,3.9-10.4
			c-0.5-3.6-0.1-7.4,1.1-11.4s2.5-7.5,3.7-10.7c1.2-3.1,2-5.8,2.3-8s0.6-4.3,0.8-6.3c0.2-2,0.5-3.7,0.8-5.2s1.2-3.2,2.6-5
			c1.5-1.8,3.8-3.2,6.9-4.1c3.1-0.9,6.2-0.9,9.3,0c0.7-0.7,1.7-1,3-0.9c1.2,0,2.1,0.5,2.5,1.3c1.9-1.4,4-2.1,6.3-2
			c2.3,0.1,3.8,0.6,4.2,1.7c0.5,1.1,0.5,2.3,0,3.5s-1.1,2.9-1.9,5c-3.7,9.4-6.4,18.1-7.9,26.1s-2.9,13.6-4.3,16.8
			c-1.3,3.2-2.6,6-3.8,8.3c-1.2,2.3-2.4,4.7-3.7,7c-3,5.3-5.1,9.7-6.4,13.2c-0.7,2-1.7,3.7-2.8,5.2c-1.1,1.5-2.2,3-3.3,4.6
			c-2.9,4.6-4.8,10.2-5.8,16.9c-1.8,12.6-3.8,19.8-6.3,21.5c-1.2,1.1-2.1,1.6-2.6,1.5c-0.5-0.2-1.1,0.2-1.8,1
			c-0.7,0.8-1.4,2.6-2.3,5.2s-2.1,5.5-3.7,8.7c-4,8.2-8.8,13.5-14.3,15.8c-3.4,1.4-5.6,1.6-6.7,0.7c-1.1-0.9-1.8-2.3-2-4.2
			s-0.3-3.8-0.3-5.9c0-2.1-0.5-3.4-1.5-4c-3.6-4-4.1-10-1.6-18c0.7-2.5,0.9-4.2,0.6-5.2c-0.3-0.9-0.5-1.9-0.5-3s0-2.2,0-3.4
			c-0.1-2.9-0.4-4.7-1-5.4c-0.6-0.7-1.1-1.4-1.6-2c-0.4-0.6-0.7-1.6-0.8-2.9c-0.5-3.2-0.5-7.1,0.2-11.7c0.6-4.6,1-8.1,1-10.4
			c0.1-2.3,0-4.5-0.1-6.4c-0.3-5-0.3-9.3,0.1-13.1c0.4-3.8,0.5-6.9,0.3-9.5c-0.2-2.5-0.4-5-0.7-7.5c-0.7-6.7-0.9-12-0.5-15.7
			s0.7-6.5,0.8-8.4C171.3,235.5,171.4,233.8,171.6,232.5z"/>
		<path id="XMLID_349_" d="M257.2,238.8l2.6-11.8c0.4-1.9,0.6-3.8,0.6-5.7s0.9-4,2.5-6.3s3.8-4.5,6.5-6.6c2.7-2.1,5.7-3.4,8.7-3.9
			c3.1-0.5,5.4-0.4,7,0.4s3.1,1.4,4.5,1.8c1.4,0.4,3,0.7,4.9,0.7c4,0,8.1-1.4,12.3-3.9c4.6-2.9,8-3.4,10.1-1.4
			c2.7-0.3,5.5-1.1,8.6-2.3c5.1-2,8.4-2.6,10-2c3.5,1.8,3.2,6.6-0.9,14.4c-0.6,1.2-1,2.2-1.1,3c-0.2,0.8-0.3,1.6-0.5,2.5
			c-0.5,2.5-1,4.3-1.6,5.6s-1,2.4-1.2,3.2s-0.3,1.8-0.5,2.9c-0.2,2.1-0.9,4.3-2.2,6.5c-0.7,1.3-1.2,2.4-1.3,3.1
			c-0.1,0.8-0.3,1.5-0.4,2.2c-0.3,1.8-1.6,3.6-3.7,5.6c-3.6,3.8-6.3,5.9-8.2,6.2c-0.4,0.1-0.7,0-1.1-0.2c-0.3-0.2-0.9-0.4-1.6-0.5
			c-2.9-0.6-6-0.7-9.3-0.3c-3.3,0.3-5.8,0.8-7.4,1.5c-4,1.5-6.7,3.9-8.2,7.2c-1.6,3.5-1.9,5.9-0.7,7.5c0.5,0.7,1.1,1.1,1.8,1.3
			c0.7,0.1,1.4,0,2.2-0.3c0.7-0.3,1.7-0.5,2.9-0.4c1.2,0.1,2.4,0.2,3.6,0.4c3.3,0.2,5.6-0.1,7-0.9c1.3-0.8,2.2-1.2,2.6-1.2
			c0.4,0.1,0.7,0.2,0.9,0.4c0.7,0.8,1.5,1.1,2.2,1c2.1-0.5,3.3,0.2,3.7,2c0.4,1.8-0.2,4.3-1.8,7.4c-0.1,0.4-0.5,1.5-1.2,3.2
			c-1.5,3.4-2.4,5.8-2.5,7c-0.2,1.2-0.6,2.5-1.4,3.9s-1.7,2.6-2.8,3.8c-2.6,2.4-5.1,3.5-7.5,3.1c-1.1-0.3-1.9-0.9-2.7-1.7
			c-6.2-0.9-10.7,0.4-13.5,3.8c-1.6,1.9-2.6,3.4-2.9,4.7c-0.4,1.3-0.8,3.5-1.4,6.6l-1.4,7.6c1.4,0.9,2.7,2.1,3.8,3.4
			c1.1,1.3,2.7,1.9,4.7,1.6c2-0.2,3.9-0.7,5.6-1.5c1.7-0.8,3.3-1.5,4.8-2.3c3.3-1.9,6.2-2.6,8.6-2.2c2.4,0.4,3.8,1.4,4.1,2.7
			c0.4,1.4,0.1,3.4-0.7,5.9c-0.8,2.5-1.4,4.4-1.5,5.5c-0.2,1.2-0.3,2.2-0.5,3.2c-0.4,2.3-1.7,4.7-3.8,7.2c-2.3,3.2-4.3,5.2-6,6.1
			c-1.7,0.9-3.7,1.4-6,1.5c-2.4,0.1-4.4,0.6-6,1.5c-1.7,0.9-3.2,1.9-4.6,3.1s-2.8,2.3-4.1,3.3c-2.2,1.7-4.4,2.1-6.5,1.2
			c-0.8-0.4-1.6-0.8-2.4-1.2c-2.1-0.8-4.8-0.8-8.2,0c-3.4,0.8-6.1,0.3-8.3-1.5c-2.1-1.8-2.9-4.3-2.4-7.6c0.6-3.3,1.2-5.7,1.8-7.2
			c0.7-1.5,1.3-2.7,1.8-3.6c0.8-1.9,0.8-3.2,0-4c-2.6-2.1-3-5.3-1.3-9.7c0.8-2.3,1.5-4,2.1-5.3c0.6-1.3,0.9-2.6,0.9-4
			s0.2-2.7,0.4-3.8c0.3-1.2,0.5-2.3,0.5-3.4c0.2-2.1-0.5-3.2-2-3.2c-1.9,0.1-2.7-1.9-2.6-5.9c0-3.8,1-7.8,3.1-12
			c2.1-4.2,3.2-7.4,3.4-9.6c0.2-2.2,0.4-4.3,0.6-6.2l1.7-8c0.7-4,0.9-6.6,0.5-7.8c-0.4-1.3-0.2-3.2,0.6-6c0.8-2.7,1.1-4.8,1-6.1
			C256.8,242.2,256.9,240.6,257.2,238.8z"/>
		<path id="XMLID_351_" d="M375.6,306c-0.5,6-1,10.3-1.4,12.8s-0.9,4.6-1.4,6.3c-0.5,1.7-1.1,3.2-1.7,4.7c-1.5,3.3-3.1,5.2-4.8,5.8
			c-1.2,0.2-2.4,1-3.7,2.3c-1.3,1.4-2.3,2.4-3.1,3c-0.7,0.7-1.7,1.1-2.9,1.3c-1.2,0.2-2.5,0.2-3.9,0.1c-1.4-0.2-2.5-1-3.3-2.6
			c-1.8-3.5-1.2-11.2,1.9-22.9c-1.5-1-2.4-2.8-2.6-5.3s0.6-6.3,2.4-11.5c1.8-5.2,3-9,3.6-11.3c0.6-2.4,1-4.3,1.1-5.8s0-2.8-0.3-3.7
			s-0.7-2.3-1.3-4.1c-0.5-1.8-0.8-3.6-0.7-5.4c0-1.8-0.3-3.1-0.9-3.8c-0.6-0.8-0.9-1.8-0.9-3.2s-0.2-2.7-0.6-4
			c-0.4-1.3-0.4-3.2-0.1-5.7c0.3-2.6,0.1-4.6-0.5-6.2c-0.6-1.5-1.3-2.8-2.1-3.8c-0.7-1-1.5-2-2.2-2.9c-2-2.6-3.3-4.8-3.9-6.7
			s-0.8-3.7-0.6-5.1c0.2-1.5,0.5-2.9,0.9-4.3c1.1-3.6,1.4-6,1-7.1l-1.3-4.1c-1.3-4.3-1.7-7.8-1.2-10.5s1.6-4.9,3.2-6.5
			c1.6-1.6,3.1-2.3,4.6-2c1.4,0.3,3.4,0.5,6,0.6c2.6,0.1,4.6-0.1,6.2-0.7c1.5-0.6,3-1.3,4.4-2.1c3.4-1.7,6-2.3,7.8-1.9
			c1.8,0.4,2.9,1.4,3.2,3c0.4,1.6,0.4,3.4,0.2,5.4c-0.3,2-0.5,4.1-0.9,6.1c-0.3,2-0.2,3.7,0.3,5.1c0.5,1.4,1,2.5,1.3,3.5
			s0.5,2.1,0.6,3.2c0.1,1.1,0.1,2.3,0,3.5s-0.2,2.7-0.4,4.4c-0.1,1.7,0,2.9,0.3,3.6c0.4,0.7,0.9,0.9,1.5,0.8c1.6-0.5,2.9-2.4,4-5.6
			s2.2-5.9,3.2-8.1s2-4.2,2.8-5.9c1.8-3.5,2.7-5.9,2.7-7.1c0.1-1.3,0.2-2.6,0.4-4c0.2-1.4,0.7-2.8,1.4-4.1c1.8-3.2,4.8-4.9,8.9-5.1
			s7.4-0.4,9.9-0.8c2.5-0.3,4.6-1.2,6.3-2.7c1.6-1.5,3.2-2.3,4.5-2.4c1.4-0.1,2.5,0.3,3.3,1.2c1.9,2.2,1.1,5.9-2.6,11.3
			c-3.7,5.3-6.2,9.5-7.6,12.5c-1.4,3-2.1,5.4-2,7.3c0.1,1.9,0,3.3-0.3,4.3s-0.8,2-1.5,3.1c-0.7,1.1-1.6,2.4-2.6,3.9
			c-7.5,11.4-14.9,25.2-22.1,41.6c-3.6,8-6.9,17.7-9.7,29.1C377.3,300.9,376.4,304,375.6,306z"/>
		<path id="XMLID_353_" d="M465.2,321.3c-1.1,1.6-2.3,2.9-3.7,3.9s-2.7,1.1-3.8,0.3c-1.1-0.8-1.9-1.1-2.5-0.8
			c-0.6,0.3-1.2,0.5-1.7,0.7c-1.2,0.3-2.2-0.3-3-2.1c-0.8-1.7-1.1-3.1-1.1-4.3c0.1-1.1,0.3-2.3,0.6-3.4c1-2.6,1-4.7,0.2-6.4
			c-0.9-1.7-1.4-3-1.7-3.9s-0.2-2.2,0.1-4.1c0.3-1.8,0.5-3,0.4-3.4s-0.2-0.8-0.3-1c-0.4-1.1-0.3-3,0.4-5.6s0.7-4.4,0-5.3
			s-1.7-1.4-3.1-1.7c-1.4-0.3-2.6,0.1-3.6,1.1s-2,2.2-2.9,3.6s-2,2.6-3.2,3.6c-1.2,1.1-2.6,1.5-4.1,1.4s-3.4,0.6-5.5,2.2
			c-2.2,1.6-3.6,3.2-4.3,5c-0.7,1.8-1.5,3.6-2.3,5.5s-1.3,3.5-1.4,5c-0.1,1.5-0.4,2.9-0.8,4.4c-0.5,1.5-1.1,2.9-1.8,4.4
			c-1.7,3.6-3.2,5.7-4.7,6.2c-1.2,0.3-2.4,0.6-3.7,0.6c-1.9,3-3.9,4.9-5.9,5.8c-5.5,2.2-8.5,1.8-8.9-1c-0.3-1.7-0.3-3.9,0.2-6.8
			c0.8-5.7,1-9.5,0.5-11.4s-0.3-4.3,0.7-7.3s1.7-5.9,2.1-8.7c0.4-2.8,0.8-5,1.2-6.6c0.4-1.5,0.8-2.9,1.3-4.2
			c0.4-1.3,0.9-2.5,1.3-3.7c0.5-1.2,0.9-2.6,1.3-4.2c0.4-1.6,0.9-3.4,1.7-5.6c0.8-2.1,1.6-4.3,2.3-6.6c2.1-5.6,3.2-9.8,3.5-12.5
			c0.3-2.7,0.9-5.1,2-7.1s2.2-3.9,3.4-5.6c3.1-4.4,4.8-7.8,5.1-10.3s0.6-4.5,0.8-5.9c0.2-1.4,0.5-2.9,0.9-4.4
			c2-7.5,7.5-19.6,16.3-36.4c0.7-1.6,2.1-2.9,4.3-4.1s4.3-1.7,6.3-1.4c2,0.2,3.7,0.2,5-0.1c1.4-0.3,2.6-1.1,3.8-2.3s2.4-2.4,3.6-3.5
			c1.3-1.1,2.7-2.2,4.4-3.1c1.7-0.9,3.4-1.5,5.4-1.8c1.9-0.3,3.9-0.1,5.8,0.8c3.2,1.4,5.2,2.9,6,4.5c0.8,1.6,1.3,2.9,1.5,3.9
			s0.5,2.4,1.1,4.2c0.5,1.8,0.6,3.4,0.3,4.9s-0.5,3.3-0.3,5.2c0.1,2-0.3,4.4-1.3,7.2s-1.5,5.5-1.5,8.1c0,2.6-0.1,4.3-0.3,5.3
			s-0.3,1.8-0.3,2.6c-0.3,2.3-0.2,4.3,0.2,5.9c0.4,1.8,0.2,4.1-0.7,7c-0.8,2.9-1.3,5.2-1.5,7s0.2,3.6,1,5.3c1.5,3.3,1.5,7.3,0,11.9
			c-0.4,1.3-0.6,2.6-0.7,4c-0.1,1.4-0.2,2.7-0.4,3.8c-0.2,1.2-0.6,2.7-1.2,4.5c-0.9,2.7-1.4,5.8-1.6,9.4c-0.5,6.7-1,11.2-1.4,13.5
			c-0.4,2.3-0.7,4.3-0.9,5.8c-0.2,1.6-0.4,3.2-0.6,5c-0.5,4.6-1.3,9.3-2.5,14C469.6,317.3,467.7,320.2,465.2,321.3z M451.3,243.9
			c0.7-2.6,1.3-5.8,1.5-9.6c0.3-3.7,0.6-6.5,0.9-8.4c0.3-1.8,0.5-3.4,0.5-4.8c0-2.1-1-2.2-3.1-0.2c-1.6-1.8-3.3-1.6-5,0.7
			c-1.2,1.7-2.1,4.2-2.7,7.6c-0.7,2.4-1.6,4.6-2.6,6.6c-1.1,2-1.9,4.2-2.6,6.6c-0.9,2.8-2.2,6.3-3.9,10.4s-2.1,7.1-1.3,8.8
			c0.9,1.7,2.2,2.1,4.1,1.3c1.9-0.9,3.3-1.4,4.2-1.6c0.9-0.2,1.7-0.5,2.4-0.7c1.6-0.4,2.9-1.3,3.9-2.6c1.1-1.3,1.7-2.4,1.9-3.3
			c0.2-0.9,0.4-1.8,0.4-2.8C450.1,249.2,450.6,246.5,451.3,243.9z"/>
		<path id="XMLID_356_" d="M511.6,276.3l-1.3,9.7c-0.7,5.3-2.7,9-5.8,11.1c-1.8,5.6-3.1,10.5-3.9,14.8c-1.3,2.1-3,3.5-5.1,4.3
			c-3.9,1.2-6.2,0.6-6.9-2c-1-3.1-2-4.7-3-4.8c-0.2-0.1-0.6-0.1-1.2-0.1c-0.6,0-1.2-0.1-1.9-0.3c-0.7-0.2-0.8-1.2-0.3-3
			c0.5-1.8,0.8-3.2,0.7-4.3c-0.1-1-0.2-2.2-0.3-3.3c-0.4-3.4-0.2-6.7,0.4-10c0.4-2.3,0.9-4.4,1.3-6.4c0.4-1.9,0.8-3.8,1.2-5.8
			c0.9-6.1,1.2-11.2,0.8-15.4s-0.7-6.9-0.8-8.2c-0.2-2.9,0-5.7,0.5-8.4c0.3-1.6,0.7-2.9,1.3-3.7c0.5-0.8,1.1-1.7,1.6-2.6
			c1.4-2.2,2.3-4.7,2.6-7.4c0.3-2.7,0.7-5.4,1-8.2s0.7-5.9,1.2-9.3c0.5-3.5,1-7.1,1.5-11.1c0.6-3.9,1.2-7.7,1.9-11.4
			c2.3-12,4.9-19.1,8-21.1c0.6-0.4,1.2-0.8,2-1.2c0.8-0.5,1.7-1.1,2.9-2c1.2-0.9,2.2-1.7,3.2-2.5c1-0.8,1.9-1.5,2.9-2.1
			c1.8-1.1,3.8-1.4,6-0.8s3.7,1,4.7,1.2c1,0.2,1.9,0.3,2.9,0.3s2.2-0.1,3.5-0.4c1.4-0.3,3.3-0.7,5.8-1.2s5.2-0.9,8.1-1.3
			c2.9-0.4,5.6-0.5,8.1-0.2c8.4,0.4,14.1,4.3,17.3,11.8c1.4,3.3,1.8,6.4,1.4,9.3c-0.4,2.8-0.8,5.6-1.1,8.2c-0.3,2.6-0.4,5.6-0.3,8.8
			c0.1,3.2-0.2,6.4-1,9.4c-0.8,3.1-1.5,5.2-2,6.4c-0.5,1.2-1.1,2.3-1.7,3.4c-1,2.2-1.7,4.3-2,6.5c-0.4,3.5-1.2,6.3-2.3,8.4
			c-1.1,2.1-2.3,4.3-3.4,6.5c-3.1,5.4-6,8.7-8.7,9.9c-1.5,0.5-2.7,1-3.6,1.4c-1,0.4-1.6,1.1-1.9,2.1c-0.4,0.7-0.2,1.4,0.7,2.2
			c0.9,0.7,1.7,1.9,2.4,3.4c0.8,1.6,1.5,2.6,2.1,3c0.7,0.4,1.3,0.6,1.9,0.7c1.8,0.1,3,0.3,3.4,0.8c0.9,1.3,1.5,2.4,1.9,3.2
			c0.4,0.9,0.3,2.3-0.3,4.2c-0.6,2-1,3.9-1.1,6c-0.1,2-0.3,4.1-0.4,6.3c-0.2,2.2-0.5,4.1-1,5.6s-0.8,2.7-0.9,3.3l-0.2,5.2
			c-0.6,3.3-2,6.1-4.2,8.5s-3.8,3.8-4.9,4.2c-1.1,0.5-2,0.6-2.8,0.3c-0.8-0.3-1.5-0.6-2-1.1s-1-0.8-1.3-1c-0.3-0.1-0.8-0.2-1.4-0.2
			c-0.6,0-1.1,0-1.7-0.2c-2.2-0.3-3.3-4.7-3.3-13.3c-0.1-4.2-1.1-6.7-3-7.6c-3-1.2-4.3-3.3-4-6.4c0.2-1.5,0.4-3.5,0.8-6.1
			c0.5-5.1-0.6-8-3.2-8.8c-1.3-0.3-2.5-0.3-3.7-0.1c-1.2,0.2-2.4,1.1-3.8,2.7C513.8,268.3,512.5,271.7,511.6,276.3z M528.6,235.6
			c2-1.9,3.9-3.7,5.7-5.3c1.8-1.6,3.5-3.5,5-5.8s2.8-4.6,3.8-6.9c1.8-4.3,2.9-8.1,3.2-11.6c0.3-3.4,0.4-5.7,0.2-6.8
			c-0.2-1.1-1.4-1.4-3.5-1.1c-2.1,0.4-4.1,0.2-6-0.5s-2.9-1.8-2.8-3.3c0.4-3.2-0.4-4.2-2.2-3c-1,0.7-1.7,1.3-2.2,1.9
			c-0.5,0.5-1.1,2-1.8,4.4c-1.3,4.9-2,8.6-2,11.3c-0.1,2.7-0.1,4.4-0.2,5.3c0,0.9-0.1,1.8-0.3,2.8c-0.1,1-0.3,2.2-0.5,3.5
			s-0.4,3.3-0.8,6.1c-0.3,2.8-0.7,5.1-1.2,7.1c-0.5,1.9-0.7,3.9-0.5,5.8C524.5,238.8,526.6,237.5,528.6,235.6z"/>
		<path id="XMLID_359_" d="M660.6,159.1c1.1,1.2,1.7,3.1,1.5,5.7c-0.2,2.6-0.1,6.6,0.2,12c0.2,5.4-1.2,11.4-4.2,18.2
			c-1.7,3.9-2.9,7-3.6,9.4c-1.6,4.5-3.2,8.4-4.7,11.6s-3.2,7.2-4.9,11.8s-3.6,8.6-5.6,12.1s-3.6,6-4.7,7.7c-1.1,1.7-2.1,3.1-3,4.5
			c-2.1,3.4-3.5,6-4.1,7.7c-0.6,1.7-1.4,3.6-2.4,5.7c-0.9,2.1-2.1,4.2-3.3,6.2c-3.3,4.8-6.5,7-9.8,6.5c-5.1,4.5-8.4,7.9-10.1,10.2
			c-1.7,2.3-3.1,4.1-4.3,5.2c-1.2,1.1-2.3,2-3.4,2.6s-2,1.1-3,1.5s-1.9,1.1-3,1.9c-1,0.8-2.4,1.6-4.1,2.4c-1.7,0.8-3.3,1.1-4.9,1
			c-4-0.1-5.5-3.3-4.5-9.5c-3.1-0.8-5-1.7-5.6-2.8c-1.6-2.1-2-5.1-1.3-9s1.5-7.1,2.4-9.6s1.7-4.8,2.5-7.1c2.2-5.5,3.1-9.8,2.9-12.7
			c-0.2-2.9,0.1-5.8,0.9-8.5c0.8-2.7,1.4-5.7,1.9-8.9c0.4-3.2,0.9-6,1.6-8.5c0.7-2.5,1.3-4.9,1.9-7.2c0.6-2.3,1.1-4.4,1.5-6.3
			c0.4-1.9,0.3-3.7-0.1-5.2c-0.4-1.6-0.7-3.2-0.8-4.9s-0.2-3.3-0.1-4.7c0.3-3.6,0.2-6.2-0.3-7.7s-0.5-3.4,0-5.7
			c0.6-2.3,0.8-4.5,0.8-6.7s0.1-3.9,0.4-5.2c0.3-1.3,0.4-2.7,0.4-4c-0.1-1.4,0.2-2.2,0.8-2.6c0.8-0.5,1.9-2.4,3.1-5.5
			c1.2-3.1,2.3-5.1,3.4-6c1-0.9,2.1-1.8,3.3-2.6c1.1-0.8,2.4-1.4,3.7-1.9c3-0.9,5.6-0.9,7.9,0.2c2.2,1.1,3.9,1.4,5.2,1.1
			c1.2-0.3,2.6-1,4-1.9c4.4-2.5,8.6-4.1,12.4-4.8c3.8-0.7,6.5-0.9,7.9-0.7c1.4,0.2,2.6,0.5,3.4,0.8c0.8,0.3,1.6,0.6,2.3,1
			c0.7,0.3,1.9,0.4,3.5,0.1s2.7-0.1,3.3,0.6s1.2,1.5,1.7,2.5s1.1,1.9,1.8,2.9c0.7,0.9,1.7,1.4,3.2,1.5c1.4,0.1,2.3,0.3,2.7,0.5
			c0.4,0.3,0.7,0.6,0.8,1c0.2,0.4,0.3,1,0.5,1.6C658.8,157,659.4,157.9,660.6,159.1z M614,197.9c-1.6,1.7-2.5,4.2-2.9,7.6
			c-0.4,3.3-0.6,7-0.8,11c-0.1,4.1-0.5,7.5-1.2,10.2c-0.6,2.8-1.4,5.5-2.2,8.1c-0.8,2.7-1.6,5.3-2.4,8c-0.8,2.7-1.5,5.2-1.9,7.8
			c-0.5,2.5-0.5,4.3-0.1,5.3s1,1.4,1.8,1.2c0.8-0.2,1.7-0.9,2.6-2c1-1.2,1.8-3,2.6-5.4c0.8-2.4,2-4.9,3.8-7.4s3.3-5,4.5-7.4
			c1.2-2.5,2-4.3,2.4-5.4c0.4-1.1,0.7-2.1,1-3.1c0.3-0.9,0.6-1.9,0.8-2.9c0.3-1,0.9-2.7,2-5s1.5-4.3,1.4-5.9c-0.1-1.6-0.1-3.5,0-5.7
			c0.2-2.1,0.1-4.1-0.1-5.8c-0.2-1.7-1.3-2.8-3.2-3.1c-0.8-0.1-1.6-0.4-2.2-0.8c-0.6-0.4-1.2-0.8-1.7-1.1
			C617,195.5,615.6,196.2,614,197.9z"/>
	</g>
	<g id="XMLID_362_">
		<path id="XMLID_363_" d="M44,163.8c0.3,2.9,0.4,5.4,0.2,7.4l-0.6,4.8c-0.1,1.1-0.1,2.5,0,4.3c0.1,1.8-0.1,3-0.5,3.8
			c-0.5,0.7-1.2,1.2-2.3,1.4c-1.1,0.2-1.9,0.1-2.5-0.1c-0.6-0.3-1.2-0.6-1.7-0.9c-1.3-0.7-2.4-0.8-3.2-0.3s-1.4,1.3-1.7,2.3
			s-0.5,2.2-0.6,3.6c-0.2,2-0.2,4.7,0,7.9c0.1,1.2,0.1,2.1,0,2.8c0,0.7,0,1.3,0,1.8c0,1.2,0.2,2.4,0.6,3.6c0.4,1.2,0.6,2.1,0.6,2.6
			s-0.1,1.1-0.2,1.4c-0.2,0.4-0.4,0.7-0.7,0.9s-0.6,0.5-0.9,0.7c-0.3,0.2-0.5,0.5-0.8,0.7s-0.6,0.5-0.9,0.7c0.3,3.2,0.4,5.7,0.2,7.6
			c-0.2,1.9-0.3,3.4-0.4,4.7s-0.4,2.3-1,3c-0.8,0.9-2.3,1.6-4.7,2c-1.4,0.1-2.4-0.6-3-2.1c-0.7-1.5-0.9-3.2-0.8-5.3
			c0.1-2.1,0-3.7-0.1-4.8c-0.2-1.1-0.4-2.1-0.7-2.9s-0.6-1.5-0.8-2.1c-0.3-0.6-0.5-1.5-0.7-2.6c-0.2-1.1-0.1-2.3,0.4-3.6
			c-0.9-1-1.5-2.1-1.9-3.3c-0.3-1.2-0.3-2.7,0.1-4.6s0.7-3.7,0.9-5.2c0.2-1.6,0.2-3,0.1-4.3c-0.1-3-0.8-4.7-2.1-5.2
			c-0.9-0.3-1.9,0-3,0.7s-1.9,1.2-2.5,1.4c-0.6,0.2-1.2,0.1-1.7-0.4c-0.6-0.5-0.8-1-0.8-1.7c0-0.6,0.1-1.4,0.3-2.1
			c0.2-0.7,0.4-1.5,0.5-2.2c0.2-0.7,0.1-1.4-0.1-2.1c-0.3-0.6-0.6-1.1-1-1.3s-0.7-0.5-1.1-1c-0.8-1-1.1-2.9-0.7-5.5
			c0.4-2.6,0.7-4.8,0.9-6.5c0.2-1.7,0.3-2.9,0.4-3.8c0.1-0.8,0.3-1.5,0.6-2.2c0.3-0.6,0.8-1.2,1.5-1.8c1.6-1.2,3.7-1.6,6.3-1.3
			c12,1.6,18.8,2.2,20.4,1.7c0.6-0.2,1.2-0.4,1.8-0.6C40.6,154.1,43.2,156.7,44,163.8z"/>
		<path id="XMLID_365_" d="M56.9,155.7c4.6-1.4,7.3-0.5,8,2.5c0.3,1.1,0.3,2,0.2,2.7s-0.2,1.5-0.2,2.3v2.9c0,2.7-0.1,4.5-0.3,5.6
			c-0.2,1.1-0.2,2.3-0.1,3.8c0.1,1.4,0.1,2.8-0.1,4.1c-0.2,1.3-0.2,2.2,0,2.6c0.3,0.5,0.6,0.8,1,1.1c0.5,0.4,1.2,0.6,2.1,0.6
			c1.4,0,2.4-0.6,2.8-2c0.2-0.6,0.2-1.6,0-3c-0.2-1.4-0.2-2.8,0-4.2c0.1-1.4,0.1-2.6,0-3.8c-0.2-1.1-0.3-2.4-0.4-3.7
			c-0.1-1.3-0.1-2.6-0.1-4c0-3.2,0.4-5.2,1.1-6.1c0.7-0.8,1.8-1.5,3.4-1.9c1.5-0.4,3.2-0.6,4.9-0.6c4.1,0,6.8,0.9,8.1,2.7
			c0.6,0.8,0.9,1.6,0.9,2.3c0,0.7,0,1.4-0.1,1.8c-0.1,0.4-0.1,0.9,0,1.5c0.2,1.6,0.1,3.1-0.3,4.7c-0.4,1.6-0.7,3.1-0.8,4.6
			c-0.2,1.5-0.3,3.1-0.3,4.9c-0.2,2.9-0.3,6.1-0.3,9.4c0,5.9-0.2,9.7-0.7,11.2c-1.1,3.3-1.3,5.8-0.6,7.5c0.2,0.5,0.3,1,0.2,1.6
			c0,0.6-0.1,1.3-0.1,2s0,1.4,0,2c0,0.7,0.2,1.4,0.5,2.2c0.6,1.8,0,3.6-1.7,5.6c-0.6,0.7-0.8,1.8-0.8,3.4c0.1,1.6,0.1,2.8,0.1,3.5
			s-0.2,1.3-0.5,1.7c-0.4,0.4-1.1,0.7-2.2,1.1c-1.1,0.4-2.4,0.6-3.8,0.8c-3.5,0.3-5.6-0.4-6.5-2.1c-0.8-1.4-1-4.3-0.5-8.5
			c0.4-4.3,0.7-7.5,0.9-9.6c0.2-2.1,0.1-3.6-0.1-4.5c-0.3-0.8-0.7-1.4-1.3-1.6s-1.2-0.3-1.9-0.2c-1.4,0.1-2.4,0.6-2.9,1.3
			c0.1,1.5,0.1,3.6,0.1,6.2c0,2.6,0,5.3-0.1,8c-0.2,6.6-0.4,10.1-0.7,10.5c-0.3,0.4-0.8,0.7-1.6,0.9c-0.8,0.2-1.6,0.3-2.5,0.3
			c-2.1,0.1-3.5-0.2-4.1-1c-0.7-0.8-1.2-1.4-1.6-1.9c-0.4-0.5-0.9-0.8-1.6-1c-0.7-0.2-1.1-0.6-1.2-1.1c-0.1-0.5-0.3-1.2-0.4-2
			c-0.3-1.8-0.3-3,0-3.5s0.5-1.2,0.5-2s-0.1-1.4-0.3-1.6c-0.3-0.2-0.5-1.2-0.7-2.8c-0.2-1.6-0.4-3.5-0.5-5.5s-0.2-4-0.2-5.8
			c0-1.8,0.2-3.2,0.6-4.2c0.9-2.1,1-4.1,0.2-6.1c-0.7-2-1.2-3.5-1.3-4.6c-0.1-1.1-0.2-2.2-0.3-3.1c-0.1-2.4-0.2-3.9-0.4-4.6
			c-0.2-0.6-0.3-1.5-0.4-2.7c-0.1-1.1-0.1-2.4-0.1-3.7s0-2.6,0-4c0-1.4,0-2.9-0.1-4.6s-0.1-3.4,0.1-5.1c0.2-1.7,0.7-3,1.8-3.9
			c1-0.9,2.2-1.5,3.7-1.7S55.8,154.3,56.9,155.7z"/>
		<path id="XMLID_367_" d="M91.2,170.2l0.2-5.6c0-0.9-0.1-1.8-0.2-2.7c-0.2-0.9,0.1-1.9,0.7-2.9c0.6-1,1.5-1.9,2.8-2.7
			c1.2-0.8,2.6-1.2,4.2-1.2s2.8,0.3,3.7,0.8s1.8,0.9,2.5,1.3c0.8,0.3,1.7,0.6,2.6,0.8c2.1,0.3,4.1,0,6.1-0.9c2.1-1,3.9-1,5.2,0.2
			c1.4,0.1,2.8-0.1,4.3-0.4c2.5-0.5,4.2-0.6,5.1-0.1c2,1.2,2.3,3.5,1,7c-0.2,0.5-0.3,1-0.3,1.4c0,0.4,0,0.8,0,1.2
			c0,1.2-0.1,2.1-0.3,2.6c-0.2,0.6-0.3,1.1-0.3,1.5c0,0.4,0,0.8,0,1.4c0.1,1,0,2.1-0.5,3c-0.3,0.6-0.4,1.1-0.4,1.4c0,0.4,0,0.7,0,1
			c0,0.8-0.5,1.7-1.4,2.4c-1.5,1.6-2.7,2.3-3.7,2.3c-0.2,0-0.4-0.1-0.6-0.2c-0.2-0.1-0.5-0.3-0.9-0.4c-1.6-0.5-3.2-0.8-4.9-1
			c-1.7-0.1-3-0.1-3.8,0.1c-2,0.4-3.2,1.3-3.6,2.8c-0.5,1.6-0.4,2.8,0.4,3.6c0.3,0.4,0.7,0.7,1.1,0.8c0.4,0.1,0.8,0.1,1.1,0
			c0.4-0.1,0.8-0.1,1.5,0c0.6,0.1,1.3,0.3,1.9,0.5c1.8,0.4,2.9,0.4,3.6,0.1c0.6-0.3,1-0.4,1.3-0.3c0.2,0.1,0.4,0.2,0.5,0.3
			c0.5,0.5,0.9,0.7,1.3,0.7c1-0.1,1.8,0.4,2.1,1.3c0.4,0.9,0.3,2.1-0.2,3.5c0,0.2-0.1,0.7-0.3,1.5c-0.5,1.6-0.7,2.6-0.6,3.2
			c0,0.6-0.1,1.2-0.3,1.8c-0.3,0.6-0.6,1.2-1.1,1.6c-1.1,1-2.3,1.3-3.6,0.9c-0.6-0.3-1.1-0.6-1.6-1.1c-3.3-1-5.6-0.7-6.7,0.7
			c-0.7,0.8-1,1.5-1.1,2.1c-0.1,0.6-0.1,1.6-0.1,3.1v3.6c0.8,0.6,1.6,1.3,2.3,2s1.6,1.2,2.6,1.2c1,0.1,2,0,2.8-0.2s1.6-0.5,2.3-0.7
			c1.6-0.6,3-0.8,4.3-0.3c1.3,0.4,2.1,1,2.4,1.7c0.3,0.7,0.4,1.7,0.2,2.8s-0.3,2-0.2,2.6c0,0.6,0,1.1,0,1.5c0,1.1-0.4,2.2-1.3,3.2
			c-0.9,1.4-1.8,2.2-2.5,2.5s-1.8,0.4-3,0.2s-2.2-0.1-3,0.2c-0.8,0.3-1.5,0.7-2.1,1.1c-0.6,0.5-1.2,0.9-1.8,1.3
			c-1,0.6-2.1,0.6-3.3,0c-0.5-0.3-0.9-0.5-1.4-0.8c-1.2-0.6-2.6-0.8-4.3-0.7s-3.2-0.4-4.5-1.5c-1.3-1.1-2-2.4-2-4
			c0-1.6,0-2.7,0.2-3.4c0.2-0.7,0.4-1.2,0.6-1.6c0.3-0.8,0.1-1.5-0.4-2c-1.6-1.2-2.1-2.9-1.7-4.9c0.2-1,0.4-1.9,0.6-2.4
			s0.2-1.2,0.1-1.9c-0.1-0.7-0.2-1.3-0.1-1.9c0-0.6,0-1.1,0-1.6c-0.1-1-0.6-1.6-1.4-1.8c-1-0.1-1.6-1.2-2-3.1
			c-0.4-1.9-0.2-3.8,0.4-5.7c0.7-1.9,1-3.4,0.8-4.4c-0.1-1.1-0.2-2.1-0.3-3l0.1-3.8c0-1.9-0.2-3.2-0.5-3.8c-0.3-0.6-0.4-1.6-0.3-2.9
			c0.1-1.3,0.1-2.2-0.1-2.9C91.2,171.5,91.2,171.1,91.2,170.2z"/>
	</g>
</g>
</svg>
