<?xml version="1.0" encoding="utf-8"?>
<!-- Generator: Adobe Illustrator 19.0.0, SVG Export Plug-In . SVG Version: 6.00 Build 0)  -->
<svg version="1.1" id="Layer_1" xmlns="http://www.w3.org/2000/svg" xmlns:xlink="http://www.w3.org/1999/xlink" x="0px" y="0px"
	 viewBox="-129 391 240 280" style="enable-background:new -129 391 240 280;" xml:space="preserve">
<style type="text/css">
	.st0{fill:#9B6C3E;}
	.st1{fill:#FFFF66;}
	.st2{opacity:0.5;fill:url(#XMLID_3_);enable-background:new    ;}
	.st3{fill:#FFF6CC;}
</style>
<g id="XMLID_1_">
	<g>
		<g>
			<path class="st0" d="M-26.9,398.7c-0.9-0.1-1.9-0.1-2.8-0.1c-26.1,0-47.2,22.4-47.2,50h50V398.7z"/>
		</g>
		<g>
			<path class="st1" d="M-26.9,401.7c-0.9-0.1-1.8-0.1-2.7-0.1c-24.5,0-44.3,21-44.3,47h47V401.7z"/>
		</g>
	</g>
	<g>
		
			<linearGradient id="XMLID_3_" gradientUnits="userSpaceOnUse" x1="-55.55" y1="-34.5" x2="37.6706" y2="-34.5" gradientTransform="matrix(1 0 0 -1 0 508)">
			<stop  offset="0" style="stop-color:#EEEEEE"/>
			<stop  offset="1" style="stop-color:#DDDDDD"/>
		</linearGradient>
		<path id="XMLID_5_" class="st2" d="M28.7,657.7l-34-8.4V608c24-1.8,42.9-21.8,42.9-46l0,0c0,0,0,0,0-9.1s-9.3-51.9-9.3-83.1
			c0-16.2,0.9-31.8,2.7-46.2H-9h-39.9c1.8,14.5,2.7,30,2.7,46.2c0,31.2-9.3,73.9-9.3,83.1c0,9.1,0,9.1,0,9.1l0,0
			c0,24.3,18.9,44.1,42.9,46v41.3l-34,8.4c-0.9,0.2-1.5,1.1-1.4,2s0.9,1.7,1.9,1.7h74.4c0.9,0,1.8-0.7,1.9-1.7
			C30.2,658.7,29.6,657.8,28.7,657.7z"/>
		<path id="XMLID_6_" class="st3" d="M24.5,469.8c0-12.6,0.6-25,1.7-37h-70.5c1.1,12,1.7,24.5,1.7,37c0,20.5-3.9,45.4-6.7,63.6
			c-1.4,9-2.6,16.6-2.6,19.6v9.1c0,23.4,19.2,42.5,42.9,42.5s42.9-19,42.9-42.5V553c0-3-1.2-10.6-2.6-19.6
			C28.4,515.1,24.5,490.2,24.5,469.8z"/>
	</g>
</g>
</svg>
