<?xml version="1.0" encoding="utf-8"?>
<!-- Generator: Adobe Illustrator 19.0.0, SVG Export Plug-In . SVG Version: 6.00 Build 0)  -->
<svg version="1.1" id="Layer_1" xmlns="http://www.w3.org/2000/svg" xmlns:xlink="http://www.w3.org/1999/xlink" x="0px" y="0px"
	 viewBox="-129 111 240 280" style="enable-background:new -129 111 240 280;" xml:space="preserve">
<style type="text/css">
	.st0{fill:#2CFF00;}
	.st1{fill:#99FF80;}
	.st2{opacity:0.5;fill:url(#XMLID_2_);enable-background:new    ;}
	.st3{fill:#00CC00;}
	.st4{fill:none;stroke:#00FFFF;stroke-width:2;stroke-miterlimit:10;}
</style>
<g id="XMLID_48_">
	<g id="XMLID_7_">
		<circle id="XMLID_3_" class="st0" cx="-91.2" cy="167.5" r="25.7"/>
		<circle id="XMLID_4_" class="st1" cx="-91.2" cy="167.5" r="23.6"/>
	</g>
	<g id="XMLID_15_">
		
			<linearGradient id="XMLID_2_" gradientUnits="userSpaceOnUse" x1="-91.2" y1="240.2" x2="73" y2="240.2" gradientTransform="matrix(1 0 0 -1 0 504)">
			<stop  offset="0" style="stop-color:#EEEEEE"/>
			<stop  offset="1" style="stop-color:#DDDDDD"/>
		</linearGradient>
		<path id="XMLID_8_" class="st2" d="M-91.2,167.5c0,38.5,31.6,46.2,31.6,46.2c9.9,0,18.7,15.9,23.3,24.7
			c4.6,8.6,13.1,14.8,23.1,16.1v92.2l-37.5,9.4c-1,0.3-1.7,1.2-1.5,2.2c0.1,1,1,1.8,2,1.8H32c1,0,1.9-0.8,2-1.8s-0.5-2-1.5-2.2
			L-5,346.7v-92.2c10.1-1.3,18.6-7.5,23.1-16.1c4.6-8.7,13.5-24.7,23.3-24.7c0,0,31.6-7.7,31.6-46.2C73,167.5-91.2,167.5-91.2,167.5
			z"/>
		<path id="XMLID_6_" class="st3" d="M-86.2,177.8c4.5,24.3,24,30.9,27.2,31.8c11,0.2,21.1,16.8,26.4,26.8
			c4.6,8.8,13.7,14.2,23.6,14.2s19-5.5,23.6-14.2c5.3-10.1,15.4-26.6,26.4-26.8c3.2-0.9,22.7-7.6,27.1-31.8L-86.2,177.8L-86.2,177.8
			z"/>
		<polyline id="XMLID_57_" class="st4" points="73.2,167.4 72.4,167 71.7,167.2 71,167.8 70.3,167.6 69.6,167.3 68.8,167.8 
			68.1,167.1 67.4,167.8 66.7,167.7 66,167.3 65.2,167.5 64.5,167.4 63.8,167.3 63.1,167.7 62.4,167.8 61.7,167.1 60.9,167.4 
			60.2,167 59.5,167.5 58.8,168 58.1,167.6 57.3,167.4 56.6,167.5 55.9,168 55.2,167.5 54.5,167.7 53.8,167.5 53,167.6 52.3,167.3 
			51.6,167.1 50.9,167.8 50.2,167.8 49.5,167.2 48.8,167.5 48,167.3 47.3,167.4 46.6,167.3 45.9,167.5 45.2,167.6 44.5,167.5 
			43.7,167.1 43,167.2 42.3,168 41.6,167.6 40.9,167.7 40.2,167.4 39.4,167.9 38.7,167.3 38,167.8 37.3,167.2 36.6,167.5 
			35.9,167.8 35.1,167 34.4,167.7 33.7,167.5 33,167.5 32.3,167.7 31.6,167.3 30.8,167.8 30.1,167.7 29.4,167.5 28.7,167.5 
			28,167.9 27.2,167.4 26.5,167.2 25.8,167.1 25.1,167.9 24.4,167.7 23.6,167.2 22.9,167.5 22.2,167 21.5,167.4 20.8,167.2 
			20,167.2 19.3,167.6 18.6,168 17.9,168 17.2,167.8 16.4,167.4 15.7,167.5 15,167.8 14.3,168 13.6,167.8 12.8,167.7 12.1,167.1 
			11.4,168 10.7,167.7 10,167.1 9.2,167.6 8.5,167.3 7.8,167.2 7.1,167.4 6.4,167.4 5.7,168 4.9,167.3 4.2,168 3.5,167.6 2.8,167.8 
			2.1,167.4 1.3,167.9 0.6,167.2 -0.1,167.5 -0.8,167.4 -1.5,167.7 -2.3,167.4 -3,168 -3.7,167.4 -4.4,167.1 -5.1,167.7 -5.9,167.1 
			-6.6,167.5 -7.3,167.3 -8,167.7 -8.8,167.7 -9.5,167.9 -10.2,168 -10.9,167 -11.6,167.9 -12.4,167.5 -13.1,167.2 -13.8,167.8 
			-14.5,167.4 -15.2,167.4 -16,167.2 -16.7,167.1 -17.4,168 -18.1,167.5 -18.8,167.2 -19.6,167.7 -20.3,167.5 -21,167.5 
			-21.7,167.4 -22.4,167.6 -23.2,167.9 -23.9,167 -24.6,167.3 -25.3,167.5 -26.1,167.8 -26.8,167.4 -27.5,167.2 -28.2,167.5 
			-28.9,167 -29.7,167.1 -30.4,167.5 -31.1,167.3 -31.8,168 -32.6,167.4 -33.3,167.5 -34,167.1 -34.7,167.9 -35.4,167 -36.2,167.6 
			-36.9,167.2 -37.6,167.2 -38.3,167.4 -39.1,167.9 -39.8,167.5 -40.5,167.6 -41.2,167.2 -41.9,167.8 -42.7,167.6 -43.4,167.2 
			-44.1,167.3 -44.8,167.5 -45.5,167.5 -46.3,167.1 -47,167.3 -47.7,167.5 -48.4,167.7 -49.2,168 -49.9,167.9 -50.6,167.9 
			-51.3,167.8 -52,167.1 -52.8,167.8 -53.5,167.9 -54.2,167.8 -54.9,167.5 -55.6,167.1 -56.4,167.7 -57.1,167.3 -57.8,167.9 
			-58.5,167.9 -59.2,167.7 -60,167.4 -60.7,167.9 -61.4,167.2 -62.1,167.1 -62.9,167.8 -63.6,167.9 -64.3,167.4 -65,167.6 
			-65.8,167.4 -66.5,167.6 -67.2,167.6 -67.9,167.8 -68.6,168 -69.4,168 -70.1,167.9 -70.8,167.3 -71.5,167.4 -72.3,167.2 
			-73,167.2 -73.7,167.4 -74.4,167.1 -75.2,167.7 -75.9,167 -76.6,167.2 -77.3,167.6 -78.1,167.6 -78.8,167.8 -79.5,167.6 
			-80.2,167.7 -81,167.1 -81.7,167.9 -82.4,167.5 -83.1,167.9 -83.9,167.6 -84.6,167.1 -85.3,167.5 -86.1,167.6 -86.8,167.6 
			-87.5,167.2 -88.2,167.3 -89,167.2 -89.7,167.3 -90.4,168 -91.2,167.5 		"/>
	</g>
</g>
</svg>
