<?xml version="1.0" encoding="utf-8"?>
<!-- Generator: Adobe Illustrator 19.0.0, SVG Export Plug-In . SVG Version: 6.00 Build 0)  -->
<svg version="1.1" id="Layer_1" xmlns="http://www.w3.org/2000/svg" xmlns:xlink="http://www.w3.org/1999/xlink" x="0px" y="0px"
	 viewBox="0 0 240 280" style="enable-background:new 0 0 240 280;" xml:space="preserve">
<style type="text/css">
	.st0{fill:#2CFF00;}
	.st1{fill:#99FF80;}
	.st2{opacity:0.5;fill:url(#XMLID_49_);}
	.st3{fill:#EFFFCC;}
	.st4{fill:none;stroke:#FFFFFF;stroke-width:2;stroke-miterlimit:10;}
</style>
<g id="XMLID_48_">
	<g id="XMLID_7_">
		<circle id="XMLID_3_" class="st0" cx="37.8" cy="56.5" r="25.7"/>
		<circle id="XMLID_4_" class="st1" cx="37.8" cy="56.5" r="23.6"/>
	</g>
	<g id="XMLID_15_">
		<linearGradient id="XMLID_49_" gradientUnits="userSpaceOnUse" x1="37.8378" y1="152.8378" x2="202.1622" y2="152.8378">
			<stop  offset="0" style="stop-color:#EEEEEE"/>
			<stop  offset="1" style="stop-color:#DDDDDD"/>
		</linearGradient>
		<path id="XMLID_8_" class="st2" d="M37.8,56.5c0,38.5,31.6,46.2,31.6,46.2c9.9,0,18.7,15.9,23.3,24.7c4.6,8.6,13.1,14.8,23.1,16.1
			v92.2l-37.5,9.4c-1,0.3-1.7,1.2-1.5,2.2c0.1,1,1,1.8,2,1.8h82.2c1,0,1.9-0.8,2-1.8c0.1-1-0.5-2-1.5-2.2l-37.5-9.4v-92.2
			c10.1-1.3,18.6-7.5,23.1-16.1c4.6-8.7,13.5-24.7,23.3-24.7c0,0,31.6-7.7,31.6-46.2H37.8z"/>
		<path id="XMLID_6_" class="st3" d="M42.8,66.8C47.3,91.1,66.8,97.7,70,98.6c11,0.2,21.1,16.8,26.4,26.8
			c4.6,8.8,13.7,14.2,23.6,14.2s19-5.5,23.6-14.2c5.3-10.1,15.4-26.6,26.4-26.8c3.2-0.9,22.7-7.6,27.1-31.8H42.8z"/>
		<g id="XMLID_1_">
			<polyline id="XMLID_57_" class="st4" points="202.2,56.4 201.4,56 200.7,56.2 200,56.8 199.3,56.6 198.6,56.3 197.8,56.8 
				197.1,56.1 196.4,56.8 195.7,56.7 195,56.3 194.2,56.5 193.5,56.4 192.8,56.3 192.1,56.7 191.4,56.8 190.7,56.1 189.9,56.4 
				189.2,56 188.5,56.5 187.8,57 187.1,56.6 186.3,56.4 185.6,56.5 184.9,57 184.2,56.5 183.5,56.7 182.8,56.5 182,56.6 181.3,56.3 
				180.6,56.1 179.9,56.8 179.2,56.8 178.5,56.2 177.8,56.5 177,56.3 176.3,56.4 175.6,56.3 174.9,56.5 174.2,56.6 173.5,56.5 
				172.7,56.1 172,56.2 171.3,57 170.6,56.6 169.9,56.7 169.2,56.4 168.4,56.9 167.7,56.3 167,56.8 166.3,56.2 165.6,56.5 
				164.9,56.8 164.1,56 163.4,56.7 162.7,56.5 162,56.5 161.3,56.7 160.6,56.3 159.8,56.8 159.1,56.7 158.4,56.5 157.7,56.5 
				157,56.9 156.2,56.4 155.5,56.2 154.8,56.1 154.1,56.9 153.4,56.7 152.6,56.2 151.9,56.5 151.2,56 150.5,56.4 149.8,56.2 
				149,56.2 148.3,56.6 147.6,57 146.9,57 146.2,56.8 145.4,56.4 144.7,56.5 144,56.8 143.3,57 142.6,56.8 141.8,56.7 141.1,56.1 
				140.4,57 139.7,56.7 139,56.1 138.2,56.6 137.5,56.3 136.8,56.2 136.1,56.4 135.4,56.4 134.7,57 133.9,56.3 133.2,57 132.5,56.6 
				131.8,56.8 131.1,56.4 130.3,56.9 129.6,56.2 128.9,56.5 128.2,56.4 127.5,56.7 126.7,56.4 126,57 125.3,56.4 124.6,56.1 
				123.9,56.7 123.1,56.1 122.4,56.5 121.7,56.3 121,56.7 120.2,56.7 119.5,56.9 118.8,57 118.1,56 117.4,56.9 116.6,56.5 
				115.9,56.2 115.2,56.8 114.5,56.4 113.8,56.4 113,56.2 112.3,56.1 111.6,57 110.9,56.5 110.2,56.2 109.4,56.7 108.7,56.5 
				108,56.5 107.3,56.4 106.6,56.6 105.8,56.9 105.1,56 104.4,56.3 103.7,56.5 102.9,56.8 102.2,56.4 101.5,56.2 100.8,56.5 
				100.1,56 99.3,56.1 98.6,56.5 97.9,56.3 97.2,57 96.4,56.4 95.7,56.5 95,56.1 94.3,56.9 93.6,56 92.8,56.6 92.1,56.2 91.4,56.2 
				90.7,56.4 89.9,56.9 89.2,56.5 88.5,56.6 87.8,56.2 87.1,56.8 86.3,56.6 85.6,56.2 84.9,56.3 84.2,56.5 83.5,56.5 82.7,56.1 
				82,56.3 81.3,56.5 80.6,56.7 79.8,57 79.1,56.9 78.4,56.9 77.7,56.8 77,56.1 76.2,56.8 75.5,56.9 74.8,56.8 74.1,56.5 73.4,56.1 
				72.6,56.7 71.9,56.3 71.2,56.9 70.5,56.9 69.8,56.7 69,56.4 68.3,56.9 67.6,56.2 66.9,56.1 66.1,56.8 65.4,56.9 64.7,56.4 
				64,56.6 63.2,56.4 62.5,56.6 61.8,56.6 61.1,56.8 60.4,57 59.6,57 58.9,56.9 58.2,56.3 57.5,56.4 56.7,56.2 56,56.2 55.3,56.4 
				54.6,56.1 53.8,56.7 53.1,56 52.4,56.2 51.7,56.6 50.9,56.6 50.2,56.8 49.5,56.6 48.8,56.7 48,56.1 47.3,56.9 46.6,56.5 
				45.9,56.9 45.1,56.6 44.4,56.1 43.7,56.5 42.9,56.6 42.2,56.6 41.5,56.2 40.8,56.3 40,56.2 39.3,56.3 38.6,57 37.8,56.5 			"/>
		</g>
	</g>
</g>
</svg>
