<?xml version="1.0" encoding="utf-8"?>
<!-- Generator: Adobe Illustrator 19.0.0, SVG Export Plug-In . SVG Version: 6.00 Build 0)  -->
<svg version="1.1" id="Layer_1" xmlns="http://www.w3.org/2000/svg" xmlns:xlink="http://www.w3.org/1999/xlink" x="0px" y="0px"
	 viewBox="-129 391 240 280" style="enable-background:new -129 391 240 280;" xml:space="preserve">
<style type="text/css">
	.st0{opacity:0.5;fill:url(#XMLID_3_);enable-background:new    ;}
	.st1{fill:#FFFBE6;}
	.st2{fill:#CC9629;}
	.st3{fill:#FFFFFF;}
</style>
<g id="XMLID_1_">
	<g>
		
			<linearGradient id="XMLID_3_" gradientUnits="userSpaceOnUse" x1="-57.9382" y1="-23" x2="40.065" y2="-23" gradientTransform="matrix(1 0 0 -1 0 508)">
			<stop  offset="0" style="stop-color:#EEEEEE"/>
			<stop  offset="1" style="stop-color:#DDDDDD"/>
		</linearGradient>
		<path id="XMLID_5_" class="st0" d="M30.6,652.1l-35.7-8.8v-43.4c25.2-1.9,45.1-22.9,45.1-48.4l0,0c0,0,0,0,0-9.6
			c0-9.6-9.8-54.6-9.8-87.4c0-17,0.9-33.4,2.8-48.6H-9.1H-51c1.9,15.2,2.8,31.5,2.8,48.6c0,32.8-9.8,77.7-9.8,87.4
			c0,9.6,0,9.6,0,9.6l0,0c0,25.5,19.9,46.4,45.1,48.4v43.4l-35.7,8.8c-0.9,0.2-1.6,1.2-1.5,2.1c0.1,0.9,0.9,1.8,2,1.8h78.2
			c0.9,0,1.9-0.7,2-1.8C32.2,653.2,31.5,652.2,30.6,652.1z"/>
		<path id="XMLID_6_" class="st1" d="M26.2,454.6c0-13.2,0.6-26.3,1.8-38.9h-74.1c1.2,12.6,1.8,25.8,1.8,38.9
			c0,21.6-4.1,47.7-7,66.9c-1.5,9.5-2.7,17.5-2.7,20.6v9.6c0,24.6,20.2,44.7,45.1,44.7s45.1-20,45.1-44.7V542
			c0-3.2-1.3-11.1-2.7-20.6C30.3,502.2,26.2,476,26.2,454.6z"/>
		<g>
			<path class="st2" d="M-44,455c0,0,0.2-0.3,0.5-0.8c0.3-0.5,0.8-1.3,1.5-2.2c0.7-0.9,1.7-1.9,2.9-2.9c1.2-1,2.8-2,4.6-2.9
				c1.8-0.8,3.9-1.5,6.3-1.8c2.3-0.3,4.8-0.4,7.3,0.2c1.3,0.3,2.6,0.7,3.8,1.2c1.3,0.5,2.5,1.2,3.6,2c2.3,1.6,4.1,3.5,5.9,5.4
				c0.9,1,1.7,2,2.5,2.9l1.2,1.5c0.4,0.3,0.8,0.7,1.1,1c1.7,1.3,3.6,2.4,5.7,2.9c2.1,0.5,4.2,0.6,6.3,0.4c1-0.1,2-0.2,3-0.5
				c1-0.2,1.9-0.4,2.8-0.7c0.9-0.2,1.7-0.6,2.5-0.9c0.8-0.3,1.5-0.7,2.2-1c1.3-0.7,2.5-1.3,3.4-1.9c0.9-0.6,1.6-1.1,2.1-1.5
				c0.5-0.3,0.8-0.5,0.8-0.5s-0.2,0.2-0.6,0.7c-0.4,0.4-0.9,1.2-1.8,1.9c-0.8,0.8-1.9,1.7-3.1,2.6c-0.7,0.4-1.4,0.9-2.1,1.4
				c-0.8,0.4-1.6,0.9-2.5,1.3c-1.8,0.8-3.9,1.6-6.2,2c-2.3,0.4-4.8,0.6-7.4,0.1c-2.6-0.5-5.2-1.6-7.5-3.3c-0.6-0.5-1.1-1-1.7-1.5
				l-1.2-1.4c-0.8-1-1.6-1.9-2.5-2.8c-1.6-1.9-3.3-3.6-5.2-4.9c-1.8-1.4-3.8-2.4-5.9-2.9c-0.4-0.1-1.2-0.3-1.6-0.4
				c-0.5-0.1-1.1-0.2-1.6-0.2c-1.1-0.1-2.1-0.1-3.1-0.1c-2,0.1-4,0.4-5.7,1c-1.7,0.5-3.3,1.2-4.6,2c-1.3,0.8-2.4,1.5-3.2,2.2
				c-0.8,0.7-1.5,1.3-1.9,1.7C-43.8,454.8-44,455-44,455z"/>
		</g>
		<g>
			<path class="st2" d="M-49,507c0,0,0.2-0.3,0.6-0.8c0.4-0.5,1.1-1.3,2-2.2c1.8-1.8,4.7-4.3,8.9-6.1c2.1-0.9,4.4-1.8,7.1-2.2
				c1.3-0.2,2.7-0.4,4.1-0.4c1.4,0,2.9,0.1,4.3,0.4c2.9,0.6,5.9,1.8,8.4,3.8c1.2,1,2.4,2.1,3.4,3.4c1,1.3,1.7,2.5,2.6,3.5
				c1.7,2.2,3.7,4.1,5.8,5.7c1.1,0.8,2.2,1.5,3.4,2.1c0.6,0.3,1.2,0.6,1.8,0.8c0.3,0.1,0.6,0.2,0.9,0.4l0.2,0.1l0,0
				c0.2,0-0.2-0.1-0.1,0l0.1,0l0.1,0l0.5,0.1c1.4,0.4,2.5,0.5,3.7,0.7c0.6,0,1.2,0.1,1.8,0.1c0.6,0,1.2,0,1.8-0.1
				c2.3-0.2,4.5-0.8,6.5-1.5c2-0.8,3.7-1.7,5.2-2.6c1.5-0.9,2.8-1.8,3.8-2.5c1-0.8,1.8-1.4,2.4-1.8c0.5-0.4,0.8-0.6,0.8-0.6
				s-0.2,0.3-0.7,0.8c-0.4,0.5-1.1,1.3-2,2.2c-0.9,0.9-2,2-3.4,3.2c-1.4,1.1-3.1,2.4-5.1,3.4c-2,1.1-4.4,2-7,2.4
				c-0.7,0.1-1.3,0.2-2,0.3c-0.7,0.1-1.4,0.1-2.1,0.1c-0.7,0-1.5-0.1-2.2-0.2c-0.8-0.1-1.4-0.2-2.1-0.4l-0.5-0.1l-0.1,0l-0.1,0
				l-0.2-0.1l0,0l-0.3-0.1c-0.3-0.1-0.7-0.2-1-0.4c-0.7-0.3-1.4-0.5-2.1-0.9c-1.4-0.6-2.7-1.4-4-2.3c-2.5-1.8-4.8-3.9-6.7-6.3
				c-1-1.2-1.8-2.6-2.6-3.6c-0.8-1-1.7-2-2.7-2.8c-2-1.6-4.3-2.8-6.7-3.3c-1.2-0.3-2.4-0.5-3.7-0.6c-1.2-0.1-2.4-0.1-3.6,0
				c-2.4,0.2-4.6,0.7-6.6,1.4c-4,1.3-7.2,3.2-9.2,4.6c-1,0.7-1.8,1.3-2.3,1.8C-48.7,506.8-49,507-49,507z"/>
		</g>
		<g>
			<path class="st2" d="M-54,560c0,0,0.2-0.3,0.7-1c0.4-0.6,1.1-1.6,2.1-2.6c2-2.1,5.2-4.9,9.9-6.9c2.3-1,5-1.9,7.9-2.3
				c2.9-0.5,6.1-0.6,9.3-0.1c3.2,0.5,6.5,1.6,9.5,3.5c1.5,1,2.8,2.1,4.1,3.4c0.6,0.7,1.2,1.3,1.7,2.1l0.4,0.5l0.1,0.1l0,0.1l0,0
				l0.1,0.1l0.2,0.3l0.6,1c1.6,2.4,3.7,4.8,6.1,6.5c2.4,1.8,5,3.1,7.8,3.9c0.7,0.2,1.4,0.4,2.1,0.5l0.5,0.1l0.3,0c0,0-0.2,0-0.1,0
				l0,0l0.1,0l0.1,0c0.4,0,0.7,0.1,1.1,0.1c0.8,0.1,1.4,0.1,2,0.1c0.7,0,1.3-0.1,2-0.1c2.6-0.2,5.1-0.9,7.3-1.7
				c2.2-0.8,4.2-1.8,5.9-2.8c1.7-1,3.2-1.8,4.4-2.6c2.4-1.5,3.8-2.3,3.8-2.3s-0.3,0.3-0.9,0.8c-0.6,0.5-1.4,1.3-2.5,2.2
				c-1.1,0.9-2.4,2-4.1,3.2c-1.6,1.2-3.6,2.5-5.8,3.6c-2.3,1.1-4.9,2.1-7.8,2.6c-0.7,0.1-1.5,0.2-2.3,0.3c-0.8,0-1.6,0.1-2.3,0.1
				c-0.4,0-0.7,0-1.1,0l-0.1,0l-0.1,0l0,0l-0.2,0l-0.3,0l-0.6-0.1c-0.8-0.1-1.6-0.3-2.4-0.4c-3.2-0.8-6.4-2.1-9.2-4.2
				c-1.4-1-2.7-2.1-3.9-3.4c-1.2-1.3-2.3-2.6-3.3-4.1l-0.6-1.1l-0.2-0.3c0,0,0.1,0.1,0,0l0,0l0-0.1l-0.1-0.1l-0.3-0.5
				c-0.4-0.6-0.9-1.2-1.4-1.7c-1-1.1-2.1-2-3.3-2.9c-2.4-1.6-5.2-2.8-8-3.3c-2.8-0.5-5.6-0.7-8.3-0.4c-2.7,0.2-5.2,0.8-7.4,1.5
				c-2.2,0.7-4.3,1.6-6,2.6c-1.7,0.9-3.1,1.9-4.2,2.8c-1.1,0.9-1.9,1.6-2.5,2.2C-53.7,559.7-54,560-54,560z"/>
		</g>
		<g>
			<path class="st3" d="M-1.8,419.7l-3.2,3.2c-1.2,1.2-3.1,1.2-4.2,0l-6.9-6.9c-1.2-1.2-1.2-3.1,0-4.2l3.2-3.2
				c1.2-1.2,3.1-1.2,4.2,0l6.9,6.9C-0.7,416.6-0.7,418.5-1.8,419.7z"/>
			<path class="st3" d="M25.5,419.7l-3.2,3.2c-1.2,1.2-3.1,1.2-4.2,0l-6.9-6.9c-1.2-1.2-1.2-3.1,0-4.2l3.2-3.2
				c1.2-1.2,3.1-1.2,4.2,0l6.9,6.9C26.7,416.6,26.7,418.5,25.5,419.7z"/>
			<path class="st3" d="M8.6,408.5l3.2,3.2c1.2,1.2,1.2,3.1,0,4.2l-6.9,6.9c-1.2,1.2-3.1,1.2-4.2,0l-3.2-3.2c-1.2-1.2-1.2-3.1,0-4.2
				l6.9-6.9C5.6,407.3,7.5,407.3,8.6,408.5z"/>
			<path class="st3" d="M-18.7,408.5l3.2,3.2c1.2,1.2,1.2,3.1,0,4.2l-6.9,6.9c-1.2,1.2-3.1,1.2-4.2,0l-3.2-3.2
				c-1.2-1.2-1.2-3.1,0-4.2l6.9-6.9C-21.8,407.3-19.9,407.3-18.7,408.5z"/>
			<path class="st3" d="M-29.2,419.7l-3.2,3.2c-1.2,1.2-3.1,1.2-4.2,0l-6.9-6.9c-1.2-1.2-1.2-3.1,0-4.2l3.2-3.2
				c1.2-1.2,3.1-1.2,4.2,0l6.9,6.9C-28,416.6-28,418.5-29.2,419.7z"/>
		</g>
	</g>
</g>
</svg>
