<?xml version="1.0" encoding="utf-8"?>
<!-- Generator: Adobe Illustrator 19.0.0, SVG Export Plug-In . SVG Version: 6.00 Build 0)  -->
<svg version="1.1" id="Layer_1" xmlns="http://www.w3.org/2000/svg" xmlns:xlink="http://www.w3.org/1999/xlink" x="0px" y="0px"
	 viewBox="0 0 240 280" style="enable-background:new 0 0 240 280;" xml:space="preserve">
<style type="text/css">
	.st0{fill:none;stroke:#FFD9B3;stroke-width:4;stroke-miterlimit:10;}
	.st1{fill:#009FE5;stroke:#009FE5;stroke-width:2;stroke-linecap:round;stroke-linejoin:round;stroke-miterlimit:10;}
	.st2{fill:#008ECC;stroke:#008ECC;stroke-width:2;stroke-linecap:round;stroke-linejoin:round;stroke-miterlimit:10;}
	.st3{fill:#00B1FF;stroke:#00B1FF;stroke-width:2;stroke-linecap:round;stroke-linejoin:round;stroke-miterlimit:10;}
	.st4{fill:#FFD400;}
	.st5{fill:#FFEA80;}
	.st6{opacity:0.5;fill:url(#XMLID_54_);}
	.st7{fill:#A966CC;}
	.st8{fill:#A700FF;}
</style>
<g id="XMLID_3_">
	<g id="XMLID_6_">
		<line id="XMLID_1_" class="st0" x1="136" y1="123.4" x2="206.6" y2="26.3"/>
		<polygon id="XMLID_12_" class="st1" points="206.6,26.3 158.3,11 182.3,32.4 208.2,51.2 236,67.5 		"/>
		<polygon id="XMLID_18_" class="st2" points="206.6,26.3 208.2,51.2 236,67.5 		"/>
		<polygon id="XMLID_9_" class="st3" points="158.3,11 182.3,32.4 206.6,26.3 		"/>
	</g>
	<g id="XMLID_7_">
		<circle id="XMLID_52_" class="st4" cx="52" cy="58.5" r="25"/>
		<circle id="XMLID_19_" class="st5" cx="52" cy="58.5" r="22"/>
	</g>
	<g id="XMLID_2_">
		<linearGradient id="XMLID_54_" gradientUnits="userSpaceOnUse" x1="45" y1="165.9505" x2="195" y2="165.9505">
			<stop  offset="0" style="stop-color:#EEEEEE"/>
			<stop  offset="1" style="stop-color:#DDDDDD"/>
		</linearGradient>
		<path id="XMLID_5_" class="st6" d="M195,91c0-11.6-2.7-22.7-7.4-32.5H52.4C47.7,68.3,45,79.3,45,91c0,40.1,31.4,72.8,71,74.9v94.5
			l-36.5,9.1c-1,0.2-1.6,1.2-1.5,2.2c0.1,1,1,1.8,2,1.8h80c1,0,1.9-0.8,2-1.8c0.1-1-0.5-1.9-1.5-2.2l-36.5-9.1v-94.5
			C163.6,163.8,195,131,195,91z"/>
		<path id="XMLID_4_" class="st7" d="M49,89.7c0,0.4,0,0.8,0,1.3c0,39.1,31.9,71,71,71s71-31.9,71-71c0-0.4,0-0.8,0-1.3H49z"/>
		<g id="XMLID_10_">
			<path id="XMLID_61_" class="st8" d="M58,126l1.5-3c0.5-1,1.1-2,1.7-3c0.6-0.9,1.2-1.9,1.8-2.8c0.7-0.9,1.3-1.8,2-2.7
				c0.7-0.9,1.4-1.8,2.2-2.6c0.8-0.8,1.6-1.7,2.4-2.5c0.8-0.8,1.7-1.6,2.5-2.3c0.9-0.7,1.8-1.4,2.7-2.1c1-0.6,1.9-1.3,2.9-1.9
				c1-0.6,2-1.2,3-1.7c1.1-0.5,2.1-1,3.2-1.4c1.1-0.4,2.2-0.8,3.3-1.1c1.1-0.3,2.3-0.6,3.5-0.8c1.2-0.1,2.3-0.3,3.5-0.4
				c1.2,0,2.4-0.1,3.6-0.1l3.6,0.3l0.1,0l0.2,0.1c2.3,0.6,4.8,1.2,7.2,2.1c2.4,0.8,4.9,1.9,7.1,3.5c0.6,0.4,1.1,0.9,1.6,1.3
				c0.5,0.5,1,1,1.5,1.6c0.2,0.3,0.5,0.6,0.7,0.9l0.6,0.9c0.2,0.3,0.4,0.6,0.5,1l0.2,0.5l0.1,0.2l0.1,0.1l0.1,0.2l0.7,1.7l0.6,1.8
				c0.4,1.2,0.8,2.4,1.1,3.6c1.4,4.7,2.5,9.3,4.9,13c1.2,1.8,2.6,3.4,4.3,4.7l0.7,0.5l0.3,0.2l0.2,0.1l0.1,0.1l0,0l0,0
				c-0.1,0,0.2,0.1-0.2-0.1l1.6,0.8c1.1,0.5,2,0.9,3.1,1.3c4.3,1.5,8.9,2.1,13.5,1.7c4.6-0.4,9.1-1.9,13.3-3.9
				c4.2-2.1,8.1-4.9,11.5-8.3c1.7-1.7,3.3-3.5,4.8-5.4c1.5-1.9,2.9-3.9,4.1-6.1c-0.9,2.3-2,4.5-3.2,6.6c-1.3,2.1-2.7,4.2-4.3,6
				c-1.6,1.9-3.4,3.7-5.3,5.3c-1.9,1.6-4,3.1-6.1,4.4c-4.3,2.6-9.2,4.4-14.3,5.2c-2.6,0.4-5.2,0.5-7.8,0.2c-2.6-0.2-5.2-0.8-7.6-1.5
				c-1.2-0.4-2.5-0.9-3.7-1.4l-1.7-0.8c-0.4-0.2-0.1-0.1-0.2-0.1l0,0l-0.1,0l-0.1-0.1l-0.2-0.1l-0.4-0.3l-0.9-0.6
				c-2.2-1.6-4.1-3.7-5.6-5.9c-1.5-2.3-2.5-4.7-3.4-7.1c-0.8-2.4-1.5-4.8-2.2-7.1c-0.3-1.2-0.7-2.3-1-3.4l-0.5-1.6l-0.6-1.7
				l-0.3-0.6c-0.1-0.2-0.2-0.5-0.3-0.7l-0.4-0.6c-0.1-0.2-0.3-0.4-0.5-0.6c-0.3-0.4-0.7-0.7-1-1.1c-0.4-0.3-0.7-0.7-1.2-1
				c-1.7-1.3-3.7-2.2-5.9-3.1c-2.2-0.8-4.5-1.5-6.8-2.2l0.3,0.1l-3.1-0.4c-1,0-2.1,0-3.1-0.1c-1,0-2.1,0.1-3.1,0.2
				c-1,0.1-2.1,0.4-3.1,0.5c-1,0.2-2,0.6-3.1,0.8c-1,0.3-2,0.8-3,1.1c-1,0.4-1.9,0.9-2.9,1.3c-1,0.5-1.9,1.1-2.8,1.6
				c-0.9,0.6-1.8,1.2-2.7,1.8l-2.6,2c-0.8,0.7-1.7,1.4-2.5,2.1c-0.8,0.7-1.6,1.5-2.4,2.3L64,118c-0.7,0.8-1.4,1.7-2.1,2.6l-2,2.7
				L58,126z"/>
		</g>
	</g>
</g>
</svg>
