<?xml version="1.0" encoding="utf-8"?>
<!-- Generator: Adobe Illustrator 19.0.0, SVG Export Plug-In . SVG Version: 6.00 Build 0)  -->
<svg version="1.1" id="Layer_1" xmlns="http://www.w3.org/2000/svg" xmlns:xlink="http://www.w3.org/1999/xlink" x="0px" y="0px"
	 viewBox="-149 401 240 280" style="enable-background:new -149 401 240 280;" xml:space="preserve">
<style type="text/css">
	.st0{fill:#58FF00;}
	.st1{fill:#ACFF80;}
	.st2{opacity:0.5;fill:url(#XMLID_8_);}
	.st3{fill:#FF4040;}
</style>
<g id="XMLID_1_">
	<g id="XMLID_2_">
		<circle id="XMLID_3_" class="st0" cx="-112" cy="446" r="25"/>
		<circle id="XMLID_4_" class="st1" cx="-112" cy="446" r="22"/>
	</g>
	<g>
		
			<linearGradient id="XMLID_8_" gradientUnits="userSpaceOnUse" x1="-112.0091" y1="549.5" x2="54.0091" y2="549.5" gradientTransform="matrix(1 0 0 1 0 4)">
			<stop  offset="0" style="stop-color:#EEEEEE"/>
			<stop  offset="1" style="stop-color:#DDDDDD"/>
		</linearGradient>
		<path id="XMLID_6_" class="st2" d="M53.7,447.6c-0.5-1-1.6-1.7-2.7-1.7h-160c-1.2,0-2.2,0.7-2.7,1.7s-0.4,2.3,0.4,3.2l78.4,98
			c0,0.1,0,0.1,0,0.2v99l-36.6,9c-1,0.2-1.6,1.2-1.5,2.2s1,1.8,2,1.8h80c1,0,1.9-0.8,2-1.8c0.1-1-0.5-1.8-1.5-2.2L-25,648v-99
			c0-0.1,0-0.1,0-0.2l78.4-98C54.1,449.9,54.2,448.6,53.7,447.6z"/>
		<path id="XMLID_5_" class="st3" d="M-94.1,465.9l62,77.5c1.6,2,4.6,2,6.2,0c10.3-12.9,43.5-54.4,62-77.5H-94.1z"/>
	</g>
</g>
</svg>
