<?xml version="1.0" encoding="utf-8"?>
<!-- Generator: Adobe Illustrator 19.0.0, SVG Export Plug-In . SVG Version: 6.00 Build 0)  -->
<svg version="1.1" id="Layer_1" xmlns="http://www.w3.org/2000/svg" xmlns:xlink="http://www.w3.org/1999/xlink" x="0px" y="0px"
	 viewBox="-129 391 240 280" style="enable-background:new -129 391 240 280;" xml:space="preserve">
<style type="text/css">
	.st0{fill:none;stroke:#2CFF00;stroke-width:5;stroke-miterlimit:10;}
	.st1{opacity:0.5;fill:url(#XMLID_4_);enable-background:new    ;}
	.st2{fill:#F3FFE6;fill-opacity:0.5;}
</style>
<g id="XMLID_1_">
	<g>
		<path class="st0" d="M-100.5,447.4c0.8,3.4,2.2,9.5,4.2,6.6c1-2.6,1.8-6.7,2.1-13.8c0-5.9,1.9-9.1,3.2-8.7
			c1.4,1.3,2.5,4.9,3.3,8.4c1.1,4,2.8,10.9,5.1,9.2c1.2-2,2.1-5.6,2.4-12.6c0-5.9,2.1-8,3.5-6.9c1.4,2,2.6,6.2,3.4,10.2
			c1.1,4.5,2.7,12.3,4.9,11.9c1.1-1.4,1.9-4.6,2.1-11.4c0-5.9,1.8-7,3-5.1c1.2,2.8,2.1,7.5,2.7,11.9"/>
	</g>
	<g>
		
			<linearGradient id="XMLID_4_" gradientUnits="userSpaceOnUse" x1="-92.0091" y1="-35.45" x2="74.0091" y2="-35.45" gradientTransform="matrix(1 0 0 -1 0 508)">
			<stop  offset="0" style="stop-color:#EEEEEE"/>
			<stop  offset="1" style="stop-color:#DDDDDD"/>
		</linearGradient>
		<path id="XMLID_6_" class="st1" d="M73.7,437.6c-0.5-1-1.6-1.7-2.7-1.7H-89c-1.2,0-2.2,0.7-2.7,1.7s-0.4,2.3,0.4,3.2l78.4,98
			c0,0.1,0,0.1,0,0.2v99l-36.6,9c-1,0.2-1.6,1.2-1.5,2.2s1,1.8,2,1.8h80c1,0,1.9-0.8,2-1.8c0.1-1-0.5-1.8-1.5-2.2L-5,638v-99
			c0-0.1,0-0.1,0-0.2l78.4-98C74.1,439.9,74.2,438.6,73.7,437.6z"/>
		<path id="XMLID_5_" class="st2" d="M-74.1,455.9l62,77.5c1.6,2,4.6,2,6.2,0c10.3-12.9,43.5-54.4,62-77.5L-74.1,455.9L-74.1,455.9z
			"/>
	</g>
</g>
</svg>
