<?xml version="1.0" encoding="utf-8"?>
<!-- Generator: Adobe Illustrator 19.0.0, SVG Export Plug-In . SVG Version: 6.00 Build 0)  -->
<svg version="1.1" id="Layer_1" xmlns="http://www.w3.org/2000/svg" xmlns:xlink="http://www.w3.org/1999/xlink" x="0px" y="0px"
	 viewBox="0 0 240 280" style="enable-background:new 0 0 240 280;" xml:space="preserve">
<style type="text/css">
	.st0{fill:#FFFFFF;}
	.st1{fill:url(#XMLID_48_);fill-opacity:0.5;}
	.st2{fill:#BF7730;}
	.st3{fill:#CC9629;}
</style>
<g id="XMLID_4_">
	<path id="XMLID_7_" class="st0" d="M149.2,39.6c1.3,1.7,3,1.9,3.9,1.9c0.7,0,1.7-0.1,2.6-0.8c1.6-0.2,2.5-1.1,3.1-2.2
		c0.5,0.4,1.1,0.6,1.9,0.7l1.7-17.9c-0.2-0.1-0.4-0.1-0.6-0.1c-0.3-0.1-0.7-0.2-1.2-0.3c-1-1.9-2.7-2.4-4.1-2.4
		c-3.2,0-4.3,2.1-4.8,4.3c-0.4-1.3-1.2-2.7-2.8-3.4c-0.6-1.8-1.8-3.4-4.5-3.4c-3.9,0-4.7,3.3-4.9,5.5c-1-1.4-2.4-1.7-3.7-1.7
		c-1.1,0-2,0.2-2.7,0.7c0,0,0-0.1-0.1-0.1c-1-4-3.8-4.4-5-4.4c-0.3,0-0.7,0-1,0.1c-0.5-0.1-1-0.2-1.6-0.2c-1.4,0-2.4,0.4-3.2,1.1
		c-0.7-0.5-1.6-0.8-2.8-0.8c-0.9,0-1.7,0.2-2.3,0.5c-0.7-0.5-1.6-0.9-2.9-0.9c-2.9,0-4.1,1.9-4.6,3.8c-0.2,0-0.4,0-0.5,0
		c-0.3,0-0.8,0-1.4,0.2c-1.3-1.6-2.9-1.8-3.8-1.8c-0.4,0-0.9,0-1.5,0.2c-0.3-0.1-0.7-0.1-1.1-0.1c-1.9,0-3.1,0.8-3.8,1.9
		c0,0-0.1,0-0.1,0c-0.9-3.3-3.2-3.8-4.7-3.8c-0.9,0-2.7,0.3-4,2.1c-0.7-1-1.9-1.8-3.7-1.8c-1.3,0-2.7,0.4-3.8,1.9
		c-1.5,0.4-3.1,1.5-3.6,4.5l1.8,18.5c1.4-0.1,2.4-0.6,3.1-1.4c0.3,0.1,0.7,0.1,1.1,0.1c0.6,0.3,1.4,0.5,2.3,0.5
		c0.9,0,1.8-0.2,2.7-0.7c0.6,0.2,1.2,0.3,1.6,0.3c0.8,0,2.6-0.2,4-2c0.4,0.1,0.7,0.1,1.2,0.1c1.4,0,2.4-0.4,3.1-1
		c0.8,1.2,2.1,1.8,3.8,1.8c1.2,0,2.2-0.3,3-1c0.1,0,0.3,0,0.4,0c1.3,0,2.3-0.3,3-0.9c0.4,0.3,0.9,0.6,1.5,0.7c1,0.9,2.1,1.2,3.2,1.2
		c2.4,0,3.6-1.3,4.3-2.8c0.4-0.1,0.7-0.1,1.1-0.3c0.8,1.6,2.2,2.4,4.1,2.4c3.5,0,4.5-2.4,4.9-5.3c0.3,0.9,0.9,1.8,1.7,2.4
		c0.6,2,1.8,3.5,4.6,3.5c0.2,0,0.5,0,0.8-0.1c0.6,0.2,1.2,0.3,1.8,0.3c1.4,0,2.5-0.4,3.2-1.1c0.5,0.6,1,1,1.6,1.3
		c0.7,1.1,1.9,1.9,3.8,1.9C146.1,41.5,147.9,41.3,149.2,39.6z"/>
	<linearGradient id="XMLID_48_" gradientUnits="userSpaceOnUse" x1="70" y1="140.531" x2="170" y2="140.531">
		<stop  offset="0" style="stop-color:#EEEEEE"/>
		<stop  offset="1" style="stop-color:#DDDDDD"/>
	</linearGradient>
	<path id="XMLID_46_" class="st1" d="M168.2,259.4l-32.2-8.1c5.7-3.6,9.8-9.5,10.9-16.6L167.6,17H72.4l20.8,217.8
		c1.1,7.1,5.2,13,10.9,16.6l-32.2,8.1c-1.2,0.3-1.9,1.4-1.8,2.6c0.1,1.2,1.2,2.1,2.4,2.1h95.2c1.2,0,2.2-0.9,2.4-2.1
		C170.1,260.8,169.4,259.7,168.2,259.4z"/>
	<path id="XMLID_6_" class="st2" d="M78.3,28.9l19.6,205.3c1.5,9.3,9.4,16.1,18.8,16.1h6.6c9.5,0,17.4-6.8,18.8-16.1l19.6-205.3
		H78.3z"/>
</g>
<g id="XMLID_1_">
	<path id="XMLID_61_" class="st3" d="M84,93l3.9-4.9c1.3-1.6,2.7-3.2,4.3-4.7c0.8-0.7,1.6-1.4,2.5-2l0.3-0.2l0.2-0.1l0.1-0.1l0,0
		l0,0l0,0l0.1,0l0.7-0.4c0.2-0.1,0.4-0.3,0.7-0.4l0.8-0.4c0.5-0.3,1.1-0.4,1.6-0.6c0.5-0.2,1.1-0.3,1.6-0.4c1.1-0.2,2.2-0.4,3.4-0.4
		c1.1,0,2.3,0.1,3.4,0.2c0.6,0.1,1.1,0.2,1.7,0.3l1.6,0.5c0.5,0.2,1.1,0.4,1.6,0.6c0.5,0.2,1,0.5,1.5,0.7c0.5,0.3,1,0.5,1.5,0.8
		c0.5,0.3,1,0.6,1.4,0.9c0.4,0.4,0.9,0.7,1.3,1.1l0.6,0.6l0.3,0.3l0.2,0.1l0,0l0,0l0.1,0.1l0.1,0.1l0.3,0.3c0.1,0.1,0.2,0.3,0.4,0.5
		c0.3,0.4,0.4,0.6,0.6,0.9c0.3,0.6,0.5,1.2,0.7,1.8c0.3,1.2,0.5,2.3,0.5,3.5C122,92.9,122,94,122,95l0-0.4c0.2,0.8,0.4,1.6,0.7,2.3
		c0.2,0.4,0.3,0.7,0.5,1.1c0.2,0.3,0.4,0.7,0.7,1l0.8,0.9c0.3,0.3,0.6,0.6,0.9,0.8c0.3,0.3,0.6,0.5,1,0.8l0.5,0.4
		c0.2,0.1,0.4,0.2,0.5,0.3c0.4,0.2,0.7,0.5,1.1,0.6l1.2,0.5c0.8,0.3,1.6,0.6,2.5,0.7c0.8,0.2,1.7,0.3,2.6,0.4c0.9,0,1.7,0.1,2.6,0
		c0.9,0,1.7-0.2,2.6-0.4c0.8-0.3,1.7-0.5,2.5-0.8l0.6-0.3l0.1,0l0,0l0,0c0,0-0.1,0.1,0,0l0,0l0.2-0.1l0.3-0.2
		c0.4-0.2,0.8-0.5,1.2-0.7c0.8-0.5,1.5-1,2.3-1.6c1.5-1.1,2.9-2.4,4.3-3.6c1.4-1.3,2.8-2.6,4.3-3.8c-2.4,3-4.6,6.1-7.5,8.9
		c-0.7,0.7-1.5,1.3-2.2,2c-0.4,0.3-0.8,0.6-1.2,0.9l-0.3,0.2l-0.1,0.1l0,0l-0.1,0l0,0l-0.1,0l-0.7,0.4c-0.9,0.5-1.9,0.9-2.8,1.3
		c-1,0.3-2,0.6-3,0.7c-1,0.2-2.1,0.2-3.1,0.3c-1,0-2.1-0.1-3.1-0.3c-1-0.1-2-0.4-3.1-0.7l-1.5-0.6c-0.5-0.2-1-0.5-1.4-0.7
		c-0.2-0.1-0.5-0.2-0.7-0.4l-0.7-0.5c-0.4-0.3-0.9-0.6-1.3-1c-0.4-0.4-0.8-0.7-1.2-1.1l-1.1-1.2c-0.4-0.4-0.6-0.9-0.9-1.4
		c-0.3-0.5-0.6-1-0.8-1.5c-0.5-1-0.8-2.1-1.1-3.1l0-0.1l0-0.3c0-1,0-2-0.1-3c-0.1-1-0.2-1.9-0.4-2.7c-0.1-0.4-0.2-0.8-0.4-1.1
		c-0.1-0.1-0.2-0.4-0.2-0.4c0,0,0-0.1-0.1-0.2l-0.3-0.3l-0.9-0.9c-0.4-0.3-0.7-0.6-1.1-0.9l-1.1-0.8c-0.4-0.3-0.8-0.5-1.2-0.8
		c-0.4-0.2-0.8-0.4-1.3-0.7l-1.3-0.6l-1.3-0.5l-1.4-0.4c-0.5-0.1-0.9-0.2-1.4-0.3c-0.5,0-0.9-0.1-1.4-0.1c-0.9,0-1.9,0-2.8,0.1
		c-0.5,0.1-0.9,0.1-1.4,0.3c-0.5,0.1-0.9,0.2-1.3,0.4L98,82.5c-0.2,0.1-0.5,0.2-0.7,0.3l-0.7,0.3L96,83.4c-0.9,0.5-1.7,1-2.5,1.6
		c-1.7,1.1-3.2,2.5-4.7,3.9C87.2,90.3,85.6,91.7,84,93z"/>
</g>
<g id="XMLID_2_">
	<path id="XMLID_59_" class="st3" d="M89,143c0.4-0.6,0.8-1.2,1.2-1.8c0.4-0.6,0.9-1.2,1.3-1.8c0.5-0.6,0.9-1.1,1.5-1.7
		c0.5-0.6,1-1.1,1.6-1.6c0.6-0.5,1.1-1,1.7-1.5c0.6-0.5,1.2-0.9,1.9-1.3l1-0.6l1-0.5c0.7-0.3,1.4-0.6,2.2-0.9
		c0.7-0.3,1.5-0.4,2.3-0.6c0.8-0.1,1.6-0.3,2.4-0.3c0.4,0,0.8-0.1,1.2-0.1l0.6,0l0.7,0c0.9,0.1,1.7,0.2,2.5,0.5
		c1.6,0.5,3.2,1.2,4.5,2.3c0.7,0.5,1.3,1.2,1.8,1.8c0.6,0.7,1,1.4,1.4,2.2l0.1,0.1l0.1,0.2c0.6,1.9,0.9,3.7,1.1,5.3
		c0.2,1.7,0.5,3.3,0.9,4.7l-0.2-0.5c1.4,2.2,3.2,4,5.5,4.9c0.6,0.2,1.2,0.4,1.8,0.4c0.3,0.1,0.6,0.1,0.9,0.1l0.1,0l0,0l0,0
		c0,0,0.1,0-0.1,0l0,0l0.1,0l0.3,0l0.5,0l0.5,0l0.5,0c0.3,0,0.6,0,1-0.1c0.7-0.1,1.3-0.2,2-0.4c0.7-0.1,1.3-0.4,1.9-0.6l1-0.3
		l0.9-0.4c0.6-0.3,1.3-0.6,1.8-1c0.6-0.3,1.2-0.7,1.8-1.1c1.2-0.8,2.3-1.7,3.4-2.6c1.1-0.9,2.2-1.9,3.3-2.9
		c-0.4,0.6-0.8,1.2-1.2,1.8c-0.4,0.6-0.9,1.2-1.3,1.8c-0.5,0.6-0.9,1.1-1.5,1.7c-0.5,0.6-1,1.1-1.6,1.6c-0.6,0.5-1.1,1-1.7,1.5
		c-0.6,0.5-1.2,0.9-1.9,1.3l-1,0.6l-1,0.5c-0.3,0.2-0.7,0.3-1.1,0.5c-0.4,0.2-0.7,0.3-1.1,0.4c-0.7,0.3-1.5,0.5-2.3,0.6
		c-0.4,0.1-0.8,0.1-1.2,0.2l-0.6,0.1l-0.5,0l-0.5,0l-0.3,0l-0.1,0l-0.1,0l-0.2,0c-0.4,0-0.8,0-1.2,0c-0.8-0.1-1.7-0.2-2.5-0.5
		c-1.6-0.5-3.2-1.4-4.5-2.4c-1.3-1.1-2.3-2.4-3.2-3.6l-0.1-0.2l-0.1-0.3c-0.6-1.9-0.9-3.7-1.1-5.3c-0.2-1.7-0.5-3.3-0.9-4.7l0.1,0.3
		c-1-2.2-2.9-3.8-5.3-4.7c-0.6-0.2-1.2-0.3-1.8-0.4l-0.4-0.1l-0.5,0c-0.3,0-0.6,0-1,0c-0.7,0-1.3,0-2,0.1c-0.7,0.1-1.3,0.2-2,0.4
		c-0.7,0.1-1.3,0.4-2,0.6l-1,0.3l-0.9,0.4c-0.6,0.3-1.3,0.6-1.9,1c-0.6,0.3-1.2,0.7-1.8,1.1c-0.6,0.4-1.2,0.8-1.7,1.2
		c-0.6,0.4-1.1,0.9-1.7,1.3C91.2,141,90.1,142,89,143z"/>
</g>
<g id="XMLID_3_">
	<path id="XMLID_57_" class="st3" d="M94,193l0.8-1.5c0.3-0.5,0.6-1,1-1.4l1-1.4l1.2-1.3c0.4-0.4,0.8-0.8,1.3-1.2
		c0.4-0.4,0.9-0.7,1.4-1.1c0.5-0.3,1-0.7,1.5-1c0.5-0.3,1-0.6,1.6-0.9c0.6-0.2,1.1-0.5,1.7-0.7c0.6-0.2,1.2-0.4,1.8-0.5
		c0.6-0.1,1.2-0.2,1.9-0.2c0.6,0,1.3-0.1,1.9,0c0.6,0.1,1.3,0.1,1.9,0.3c0.6,0.2,1.3,0.3,1.8,0.5c0.6,0.2,1.2,0.4,1.7,0.7l1.6,0.9
		l0.1,0.1l0.2,0.2c1,1,1.7,2.1,2.3,3.2c0.6,1.1,1,2.3,1.4,3.4c0.4,1.1,0.6,2.2,0.9,3.3l0.2,0.8c0.1,0.2,0.1,0.4,0.2,0.6
		c0.1,0.4,0.3,0.8,0.6,1.2c0.1,0.2,0.2,0.4,0.4,0.6c0.1,0.2,0.2,0.4,0.4,0.5c0.3,0.3,0.6,0.6,0.9,0.9c0.4,0.3,0.7,0.5,1.1,0.7
		c0.2,0.1,0.4,0.2,0.6,0.3c0.2,0.1,0.4,0.2,0.6,0.3c0.4,0.2,0.9,0.3,1.3,0.4c0.2,0,0.5,0.1,0.7,0.1c0.2,0,0.5,0.1,0.7,0.1
		c0.2,0,0.5,0,0.7,0l0.7-0.1c0.5,0,1-0.2,1.5-0.2l0.1,0l0.8-0.1l0.8-0.2c0.6-0.2,1.1-0.3,1.7-0.6c0.5-0.2,1.1-0.5,1.6-0.8
		c0.5-0.3,1-0.6,1.6-1c1-0.7,2-1.5,3-2.3c0.5-0.4,0.9-0.8,1.4-1.3l1.4-1.3c-0.6,1.1-1.3,2.2-2.1,3.3c-0.4,0.5-0.8,1-1.2,1.5
		c-0.4,0.5-0.9,1-1.4,1.4c-0.5,0.5-1,0.9-1.5,1.3c-0.5,0.4-1.1,0.8-1.7,1.2c-0.6,0.4-1.2,0.7-1.9,1c-0.3,0.1-0.7,0.3-1,0.4l-1,0.3
		l0.1,0c-0.6,0.2-1.2,0.4-1.8,0.5l-0.9,0.2c-0.3,0-0.6,0.1-0.9,0.1c-0.6,0.1-1.3,0-1.9,0c-0.6-0.1-1.3-0.2-1.9-0.4
		c-0.3-0.1-0.6-0.2-0.9-0.3c-0.3-0.1-0.6-0.2-0.9-0.4c-0.6-0.3-1.2-0.6-1.7-1c-0.5-0.4-1.1-0.8-1.5-1.3c-0.2-0.2-0.4-0.5-0.7-0.8
		c-0.2-0.3-0.4-0.5-0.6-0.8c-0.4-0.6-0.7-1.1-0.9-1.8c-0.1-0.3-0.3-0.7-0.4-1l-0.2-0.8c-0.3-1.1-0.6-2.1-0.9-3.1
		c-0.6-2-1.4-3.8-2.6-5.1l0.3,0.2l-1.3-0.8c-0.4-0.3-0.9-0.4-1.3-0.6c-0.4-0.2-0.9-0.3-1.4-0.5c-0.5-0.2-0.9-0.2-1.4-0.3
		c-0.5-0.1-1-0.1-1.4-0.2c-0.5-0.1-1,0-1.5,0c-0.5,0-1,0.1-1.5,0.2c-0.5,0.1-1,0.3-1.5,0.4c-0.5,0.1-1,0.3-1.5,0.5
		c-0.5,0.2-1,0.4-1.4,0.7l-1.4,0.8c-0.5,0.3-0.9,0.6-1.4,0.9c-0.9,0.6-1.7,1.3-2.6,2l-1.2,1.1L94,193z"/>
</g>
</svg>
